<svg width="351" height="350" viewBox="0 0 351 350" fill="none" xmlns="http://www.w3.org/2000/svg">
<path d="M72.6665 20V226.667" stroke="#9D81CC" stroke-width="36" stroke-linecap="round" stroke-linejoin="round"/>
<path d="M279.333 123.333C279.333 164.442 263.003 203.867 233.935 232.935C204.867 262.003 165.442 278.333 124.333 278.333" stroke="#9D81CC" stroke-width="36" stroke-linecap="round" stroke-linejoin="round"/>
<path d="M279.333 123.333C307.868 123.333 331 100.201 331 71.6667C331 43.132 307.868 20 279.333 20C250.798 20 227.667 43.132 227.667 71.6667C227.667 100.201 250.798 123.333 279.333 123.333Z" stroke="#BDABDA" stroke-width="36" stroke-linecap="round" stroke-linejoin="round"/>
<path d="M72.6667 330C101.201 330 124.333 306.868 124.333 278.333C124.333 249.799 101.201 226.667 72.6667 226.667C44.132 226.667 21 249.799 21 278.333C21 306.868 44.132 330 72.6667 330Z" stroke="#BDABDA" stroke-width="36" stroke-linecap="round" stroke-linejoin="round"/>
</svg>
