<svg width="350" height="350" viewBox="0 0 350 350" fill="none" xmlns="http://www.w3.org/2000/svg">
<path d="M283.5 82L327.493 184.652C329.147 188.51 330 192.665 330 196.863V206" stroke="#973333" stroke-width="36" stroke-linecap="round" stroke-linejoin="round"/>
<path d="M66.5 82L22.5065 184.652C20.8528 188.51 20 192.665 20 196.863V206" stroke="#973333" stroke-width="36" stroke-linecap="round" stroke-linejoin="round"/>
<path d="M82 268C116.242 268 144 240.242 144 206C144 171.758 116.242 144 82 144C47.7584 144 20 171.758 20 206C20 240.242 47.7584 268 82 268Z" stroke="#D83D3D" stroke-width="36" stroke-linecap="round" stroke-linejoin="round"/>
<path d="M268 268C302.242 268 330 240.242 330 206C330 171.758 302.242 144 268 144C233.758 144 206 171.758 206 206C206 240.242 233.758 268 268 268Z" stroke="#D83D3D" stroke-width="36" stroke-linecap="round" stroke-linejoin="round"/>
<path d="M144 206L147.272 204.364C164.728 195.637 185.272 195.637 202.727 204.364L206 206" stroke="#D83D3D" stroke-width="36" stroke-linecap="round" stroke-linejoin="round"/>
</svg>
