<svg width="326" height="303" viewBox="0 0 326 303" fill="none" xmlns="http://www.w3.org/2000/svg">
<path d="M166.135 84.3823C184.036 84.3823 198.547 69.9084 198.547 52.0539C198.547 34.1995 184.036 19.7256 166.135 19.7256C148.235 19.7256 133.724 34.1995 133.724 52.0539C133.724 69.9084 148.235 84.3823 166.135 84.3823Z" fill="#D6A472"/>
<path d="M141.944 68.2181C141.944 68.2181 148.051 114.134 138.656 119.288C129.261 124.441 194.554 124.91 194.554 124.91C194.554 124.91 179.992 85.0851 186.569 72.9033L141.944 68.2181Z" fill="#D6A472"/>
<path d="M242.231 125.142L236.801 149.805L225.319 201.984L224.976 204.842L221.013 237.924L218.378 259.901L216.61 274.663C205.864 280.172 198.076 283.974 198.076 283.974C198.076 283.974 197.406 280.625 196.326 276.338C188.785 278.593 174.831 282.335 163.005 283.082C167.311 287.87 169.29 292.367 166.606 295.686C158.505 305.692 125.061 284.731 113.363 276.914C113.091 278.786 112.987 280.678 113.054 282.568L104.103 275.701L104.989 259.901L106.483 233.167L108.36 199.641C107.768 198.206 107.272 196.733 106.875 195.232C104.133 185.507 100.806 166.089 98.2538 149.805C96.1998 136.7 94.6572 125.626 94.331 123.269C94.287 122.962 94.2649 122.803 94.2649 122.803L143.819 100.963C147.341 109.109 163.785 111.558 163.785 111.558C177.409 110.621 188.089 103.455 188.089 103.455L242.231 125.142Z" fill="#D0CDE1"/>
<path d="M201.836 274.606C201.836 274.606 199.738 275.323 196.326 276.338C188.785 278.593 174.831 282.335 163.005 283.082C152.824 283.733 144.22 282.168 142.647 275.542C141.972 272.694 142.929 270.35 145.014 268.425C151.237 262.67 167.492 260.608 180.384 259.901C184.025 259.703 187.392 259.61 190.196 259.575C194.956 259.514 198.076 259.61 198.076 259.61L198.151 259.901L201.836 274.606Z" fill="#A0616A"/>
<path d="M139.172 21.4743L133.112 19.0544C133.112 19.0544 145.783 5.13987 163.413 6.34988L158.454 0.905021C158.454 0.905021 170.574 -3.93475 181.593 8.76973C187.385 15.4482 194.087 23.2984 198.264 32.1416H204.754L202.046 38.0905L211.526 44.0394L201.795 42.9709C202.375 46.2286 202.464 49.5543 202.059 52.8383C201.642 56.1232 199.961 59.1178 197.372 61.1902V61.1902C197.372 61.1902 189.857 45.6733 189.857 43.2534V49.3032C189.857 49.3032 183.796 43.8584 183.796 40.2286L180.491 44.4634L178.838 37.8086L158.454 44.4634L161.76 39.0187L149.088 40.8336L154.047 34.1788C154.047 34.1788 139.723 42.0435 139.172 48.6983C138.621 55.353 134.428 61.6588 134.428 61.6588C134.428 61.6588 123.195 30.5489 139.172 21.4743Z" fill="#2F2E41"/>
<path d="M277.461 238.526C274.16 242.096 265.979 247.472 256.062 253.293C252.373 255.456 248.446 257.685 244.439 259.901C234.879 265.189 224.87 270.43 216.61 274.663C205.864 280.172 198.076 283.974 198.076 283.974C198.076 283.974 197.406 280.625 196.326 276.338C194.881 270.601 192.703 263.185 190.434 259.901C190.354 259.786 190.275 259.681 190.196 259.575C189.534 258.709 188.869 258.204 188.212 258.204L221.013 237.924L235.188 229.158L224.976 204.842L212.167 174.341L219.898 149.805L227.669 125.142H242.231C242.231 125.142 247.053 135.64 253.219 150.28C254.14 152.469 255.092 154.751 256.062 157.107C268.747 187.881 284.561 230.854 277.461 238.526Z" fill="#D0CDE1"/>
<path d="M166.606 295.686C158.505 305.692 125.061 284.731 113.363 276.914C110.815 275.213 109.299 274.136 109.299 274.136L120.001 259.901L123.39 255.394C123.39 255.394 126.422 256.999 130.905 259.61C131.068 259.707 131.231 259.804 131.399 259.901C135.264 262.165 140.117 265.123 145.014 268.425C151.77 272.984 158.602 278.185 163.005 283.082C167.311 287.87 169.29 292.367 166.606 295.686Z" fill="#A0616A"/>
<path d="M130.905 259.61C129.709 259.606 128.514 259.703 127.335 259.901C117.202 261.637 114.214 270.786 113.363 276.914C113.091 278.786 112.987 280.678 113.054 282.568L104.103 275.701L100.841 273.199C92.9911 270.469 85.9963 265.62 79.9315 259.901C74.6702 254.851 69.9506 249.268 65.8493 243.243C61.7643 237.305 58.1227 231.074 54.9538 224.603C54.0697 222.797 53.5944 220.819 53.5616 218.81C53.5289 216.801 53.9395 214.809 54.7643 212.975L65.8493 188.334L82.0515 152.32C82.1705 151.463 82.3013 150.624 82.4438 149.805C85.6569 131.429 94.2649 123.269 94.2649 123.269H100.841L105.24 149.805L110.705 182.773L106.875 195.232L98.0245 224.005L106.483 233.167L130.905 259.61Z" fill="#D0CDE1"/>
<path d="M138.348 182.799L143.97 189.341C146.058 188.944 148.239 188.477 150.486 187.953L148.871 182.799L152.819 187.393C176.619 181.555 206.118 170.203 206.118 170.203C206.118 170.203 174.271 172.532 150.491 167.351C139.97 165.058 129.145 170.26 124.828 180.101C122.318 185.821 122.712 190.776 131.613 190.776C134.62 190.725 137.619 190.444 140.583 189.935L138.348 182.799Z" fill="#9d81cc"/>
<path d="M266.508 290.323V292.991C266.51 293.724 266.374 294.45 266.107 295.132C265.989 295.436 265.846 295.73 265.679 296.011C265.154 296.891 264.409 297.619 263.516 298.125C262.624 298.63 261.615 298.896 260.589 298.895H63.769C62.7427 298.896 61.7338 298.63 60.8414 298.125C59.9489 297.619 59.2035 296.891 58.6782 296.011C58.5121 295.73 58.3691 295.436 58.2507 295.132C57.9842 294.45 57.8481 293.724 57.8496 292.991V290.323C57.8494 289.547 58.0024 288.779 58.2998 288.063C58.5972 287.347 59.0332 286.696 59.5829 286.147C60.1326 285.599 60.7852 285.164 61.5035 284.868C62.2218 284.571 62.9916 284.418 63.769 284.419H75.1141V283.174C75.114 283.142 75.1204 283.11 75.1327 283.08C75.1451 283.05 75.1633 283.023 75.1862 283C75.2092 282.977 75.2364 282.959 75.2664 282.947C75.2963 282.934 75.3284 282.928 75.3609 282.928H81.2802C81.3127 282.928 81.3448 282.934 81.3747 282.947C81.4047 282.959 81.432 282.977 81.4549 283C81.4778 283.023 81.496 283.05 81.5084 283.08C81.5208 283.11 81.5271 283.142 81.5271 283.174V284.419H85.225V283.174C85.2249 283.142 85.2313 283.11 85.2437 283.08C85.256 283.05 85.2742 283.023 85.2972 283C85.3201 282.977 85.3473 282.959 85.3773 282.947C85.4073 282.934 85.4394 282.928 85.4718 282.928H91.3912C91.4236 282.928 91.4557 282.934 91.4857 282.947C91.5157 282.959 91.5429 282.977 91.5658 283C91.5887 283.023 91.6069 283.05 91.6193 283.08C91.6317 283.11 91.638 283.142 91.638 283.174V284.419H95.3403V283.174C95.3403 283.142 95.3466 283.11 95.359 283.08C95.3714 283.05 95.3896 283.023 95.4125 283C95.4354 282.977 95.4627 282.959 95.4926 282.947C95.5226 282.934 95.5547 282.928 95.5872 282.928H101.507C101.539 282.928 101.571 282.934 101.601 282.947C101.631 282.959 101.658 282.977 101.681 283C101.704 283.023 101.722 283.05 101.735 283.08C101.747 283.11 101.753 283.142 101.753 283.174V284.419H105.451V283.174C105.451 283.142 105.458 283.11 105.47 283.08C105.482 283.05 105.501 283.023 105.523 283C105.546 282.977 105.574 282.959 105.604 282.947C105.634 282.934 105.666 282.928 105.698 282.928H111.617C111.65 282.928 111.682 282.934 111.712 282.947C111.742 282.959 111.769 282.977 111.792 283C111.815 283.023 111.833 283.05 111.846 283.08C111.858 283.11 111.864 283.142 111.864 283.174V284.419H115.562V283.174C115.562 283.142 115.569 283.11 115.581 283.08C115.593 283.05 115.611 283.023 115.634 283C115.657 282.977 115.685 282.959 115.715 282.947C115.745 282.934 115.777 282.928 115.809 282.928H121.728C121.761 282.928 121.793 282.934 121.823 282.947C121.853 282.959 121.88 282.977 121.903 283C121.926 283.023 121.944 283.05 121.957 283.08C121.969 283.11 121.975 283.142 121.975 283.174V284.419H125.678V283.174C125.678 283.142 125.684 283.11 125.696 283.08C125.709 283.05 125.727 283.023 125.75 283C125.773 282.977 125.8 282.959 125.83 282.947C125.86 282.934 125.892 282.928 125.924 282.928H131.844C131.876 282.928 131.908 282.934 131.938 282.947C131.968 282.959 131.995 282.977 132.018 283C132.041 283.023 132.06 283.05 132.072 283.08C132.084 283.11 132.091 283.142 132.091 283.174V284.419H135.789V283.174C135.789 283.142 135.795 283.11 135.807 283.08C135.82 283.05 135.838 283.023 135.861 283C135.884 282.977 135.911 282.959 135.941 282.947C135.971 282.934 136.003 282.928 136.035 282.928H182.403C182.435 282.928 182.467 282.934 182.497 282.947C182.527 282.959 182.555 282.977 182.578 283C182.601 283.023 182.619 283.05 182.631 283.08C182.643 283.11 182.65 283.142 182.65 283.174V284.419H186.352V283.174C186.352 283.142 186.358 283.11 186.371 283.08C186.383 283.05 186.401 283.023 186.424 283C186.447 282.977 186.474 282.959 186.504 282.947C186.534 282.934 186.567 282.928 186.599 282.928H192.518C192.584 282.929 192.646 282.955 192.692 283.001C192.738 283.047 192.764 283.109 192.765 283.174V284.419H196.463V283.174C196.463 283.142 196.469 283.11 196.482 283.08C196.494 283.05 196.512 283.023 196.535 283C196.558 282.977 196.585 282.959 196.615 282.947C196.645 282.934 196.677 282.928 196.71 282.928H202.629C202.662 282.928 202.694 282.934 202.724 282.947C202.754 282.959 202.781 282.977 202.804 283C202.827 283.023 202.845 283.05 202.857 283.08C202.87 283.11 202.876 283.142 202.876 283.174V284.419H206.574V283.174C206.574 283.142 206.58 283.11 206.593 283.08C206.605 283.05 206.623 283.023 206.646 283C206.669 282.977 206.696 282.959 206.726 282.947C206.756 282.934 206.788 282.928 206.821 282.928H212.74C212.773 282.928 212.805 282.934 212.835 282.947C212.865 282.959 212.892 282.977 212.915 283C212.938 283.023 212.956 283.05 212.968 283.08C212.981 283.11 212.987 283.142 212.987 283.174V284.419H216.689V283.174C216.689 283.142 216.696 283.11 216.708 283.08C216.72 283.05 216.739 283.023 216.762 283C216.785 282.977 216.812 282.959 216.842 282.947C216.872 282.934 216.904 282.928 216.936 282.928H222.856C222.92 282.929 222.982 282.955 223.028 283.001C223.073 283.048 223.098 283.11 223.098 283.174V284.419H226.8V283.174C226.8 283.142 226.807 283.11 226.819 283.08C226.831 283.05 226.85 283.023 226.873 283C226.895 282.977 226.923 282.959 226.953 282.947C226.983 282.934 227.015 282.928 227.047 282.928H232.967C232.999 282.928 233.031 282.934 233.061 282.947C233.091 282.959 233.118 282.977 233.141 283C233.164 283.023 233.182 283.05 233.195 283.08C233.207 283.11 233.213 283.142 233.213 283.174V284.419H236.911V283.174C236.911 283.142 236.918 283.11 236.93 283.08C236.942 283.05 236.961 283.023 236.983 283C237.006 282.977 237.034 282.959 237.064 282.947C237.094 282.934 237.126 282.928 237.158 282.928H243.078C243.11 282.928 243.142 282.934 243.172 282.947C243.202 282.959 243.229 282.977 243.252 283C243.275 283.023 243.293 283.05 243.306 283.08C243.318 283.11 243.324 283.142 243.324 283.174V284.419H260.589C261.366 284.418 262.136 284.571 262.854 284.868C263.572 285.164 264.225 285.599 264.775 286.147C265.325 286.696 265.761 287.347 266.058 288.063C266.355 288.779 266.508 289.547 266.508 290.323V290.323Z" fill="#3F3D56"/>
<path d="M323.74 295.132H0.665894V296.011H323.74V295.132Z" fill="#3F3D56"/>
<path d="M250.66 177.941H177.3V176.433H144.035V177.941H70.3718C69.0557 177.941 67.7936 178.463 66.8629 179.391C65.9323 180.319 65.4095 181.578 65.4095 182.891V283.087C65.4095 284.4 65.9323 285.658 66.8629 286.587C67.7935 287.515 69.0557 288.036 70.3718 288.036H250.66C251.976 288.036 253.239 287.515 254.169 286.587C255.1 285.658 255.623 284.4 255.623 283.087V182.891C255.623 182.241 255.494 181.597 255.245 180.997C254.996 180.396 254.63 179.851 254.169 179.391C253.708 178.932 253.161 178.567 252.559 178.318C251.957 178.069 251.312 177.941 250.66 177.941V177.941Z" fill="#3F3D56"/>
<path d="M160.66 223.913C166.746 223.913 171.679 218.992 171.679 212.922C171.679 206.852 166.746 201.932 160.66 201.932C154.575 201.932 149.642 206.852 149.642 212.922C149.642 218.992 154.575 223.913 160.66 223.913Z" stroke="#D0CDE1" stroke-width="2" stroke-miterlimit="10"/>
<path d="M157.134 227.869C163.22 227.869 168.153 222.949 168.153 216.879C168.153 210.809 163.22 205.888 157.134 205.888C151.049 205.888 146.116 210.809 146.116 216.879C146.116 222.949 151.049 227.869 157.134 227.869Z" fill="#D0CDE1"/>
<path d="M21.7983 290.69H9.45714V303H21.7983V290.69Z" fill="#D0CDE1"/>
<path d="M14.3072 281.019V295.966H29.2929V281.019H14.3072ZM28.6406 295.316H14.9551V281.669H28.6406V295.316Z" fill="#3F3D56"/>
<path d="M307.408 290.69H295.067V303H307.408V290.69Z" fill="#D0CDE1"/>
<path d="M299.917 281.019V295.966H314.903V281.019H299.917ZM314.251 295.316H300.565V281.669H314.251V295.316Z" fill="#3F3D56"/>
<path d="M40.3751 263.667C40.7864 277.713 32.5583 282.861 22.2322 283.162C21.9923 283.169 21.7536 283.173 21.5159 283.175C21.037 283.178 20.5628 283.17 20.0932 283.151C10.7543 282.764 3.36203 277.819 2.97956 264.757C2.58376 251.238 19.4061 233.674 20.6682 232.375L20.6705 232.373C20.7184 232.324 20.743 232.299 20.743 232.299C20.743 232.299 39.9639 249.622 40.3751 263.667Z" fill="#D0CDE1"/>
<path d="M21.4888 281.033L28.0483 271.303L21.5022 282.08L21.5158 283.175C21.037 283.178 20.5628 283.17 20.0932 283.151L20.4186 269.077L20.4096 268.969L20.4216 268.948L20.4528 267.618L13.2694 257.215L20.4443 266.623L20.4698 266.904L20.7155 256.271L14.511 245.486L20.7332 254.403L20.6682 232.375L20.6684 232.301L20.6705 232.373L21.0823 249.735L26.737 242.683L21.1008 251.23L21.2243 260.741L26.4277 251.459L21.2434 262.14L21.3121 267.428L28.8793 254.498L21.3351 269.273L21.4888 281.033Z" fill="#3F3D56"/>
<path d="M325.985 263.667C326.396 277.713 318.168 282.861 307.842 283.162C307.602 283.169 307.364 283.173 307.126 283.175C306.647 283.178 306.173 283.17 305.703 283.151C296.364 282.764 288.972 277.819 288.59 264.757C288.194 251.238 305.016 233.674 306.278 232.375L306.281 232.373C306.329 232.324 306.353 232.299 306.353 232.299C306.353 232.299 325.574 249.622 325.985 263.667Z" fill="#D0CDE1"/>
<path d="M307.099 281.033L313.658 271.303L307.112 282.08L307.126 283.175C306.647 283.178 306.173 283.17 305.703 283.151L306.029 269.077L306.02 268.969L306.032 268.948L306.063 267.618L298.879 257.215L306.054 266.623L306.08 266.904L306.326 256.271L300.121 245.486L306.343 254.403L306.278 232.375L306.278 232.301L306.281 232.373L306.692 249.735L312.347 242.683L306.711 251.23L306.834 260.741L312.038 251.459L306.853 262.14L306.922 267.428L314.489 254.498L306.945 269.273L307.099 281.033Z" fill="#3F3D56"/>
</svg>
