<svg xmlns="http://www.w3.org/2000/svg" width="250" height="250" fill="none"  xmlns:v="https://vecta.io/nano"><path fill="#fff" d="M0 0h250v250H0z"/><g filter="url(#A)"><path d="M89.476 216.035c10.607 5.689 22.636 8.965 35.342 8.965s24.735-3.276 35.342-8.965v-11.311H89.476v11.311z" fill="#d29b6e"/><path d="M192.977 128.686h-2.524V72.926H59.183v55.761h-2.524c-6.971 0-12.622 5.673-12.622 12.672s5.651 12.673 12.622 12.673h2.779c2.586 34.018 30.835 60.829 65.38 60.829s62.794-26.811 65.38-60.829h2.779c6.971 0 12.622-5.674 12.622-12.673s-5.65-12.672-12.622-12.672z" fill="#f5b97d"/><path d="M170.258 83.064V72.926H59.183v55.761h-1.804c-6.603 0-12.619 4.769-13.277 11.365-.757 7.585 5.156 13.98 12.557 13.98h2.779c2.586 34.018 30.835 60.829 65.379 60.829 3.454 0 6.822-.338 10.13-.855-31.458-4.874-55.569-32.095-55.569-65.044v-35.484c0-11.198 9.042-20.277 20.195-20.277h60.586c5.577.002 10.098-4.537 10.098-10.136z" fill="#e3aa75"/><path d="M94.525 144.334a5.06 5.06 0 0 1-5.049-5.069v-5.069a5.06 5.06 0 0 1 5.049-5.07 5.06 5.06 0 0 1 5.049 5.07v5.069c0 2.8-2.258 5.069-5.049 5.069z" fill="#5a4650"/><path d="M155.111 144.334a5.06 5.06 0 0 1-5.049-5.069v-5.069a5.06 5.06 0 0 1 5.049-5.07c2.791 0 5.049 2.27 5.049 5.07v5.069c0 2.8-2.258 5.069-5.049 5.069z" fill="#5a4650"/><path d="M99.574 123.617H89.476a5.06 5.06 0 1 1 0-10.138h10.098c2.791 0 5.049 2.27 5.049 5.069s-2.257 5.069-5.049 5.069z" fill="#6e5a64"/><path d="M160.16 123.617h-10.098a5.06 5.06 0 1 1 0-10.138h10.098a5.06 5.06 0 1 1 0 10.138z" fill="#6e5a64"/><path d="M104.305 162.118c-1.59 0-2.219 1.398-1.954 2.972 1.64 9.76 11.074 17.244 22.467 17.244s20.827-7.484 22.467-17.244c.264-1.574-1.469-2.972-3.059-2.972h-39.921z" fill="#fff"/><path d="M181.386 62.788H68.249c-15.416 0-27.232 13.751-24.971 29.061l5.808 39.342 11.336-1.406c5.059-.628 8.86-4.943 8.86-10.062V93.202c0-5.6 4.521-10.138 10.098-10.138h90.879c5.576 0 10.098 4.539 10.098 10.138v26.521c0 5.118 3.8 9.434 8.859 10.061l11.336 1.406 5.808-39.341c2.259-15.31-9.557-29.061-24.973-29.061z" fill="#5a4650"/><path d="M192.823 28.563c-.97-3.019-4.462-4.484-7.222-2.939-5.259 2.947-15.037 6.746-30.49 6.746h-50.489c-19.519 0-35.342 15.886-35.342 35.484 0 8.399 6.781 15.207 15.147 15.207h80.782c18.973 0 37.946-22.369 27.615-54.499z" fill="#64505a"/><path d="M99.335 50.044c.076 7.188 6.417 12.744 13.576 12.744h68.475c3.633 0 7.055.786 10.151 2.155 4.599-9.373 5.956-21.867 1.28-36.397-.967-3.004-4.456-4.466-7.201-2.927-5.257 2.948-15.038 6.754-30.505 6.754h-50.489l-.988.582a35.38 35.38 0 0 0-4.301 16.925l.002.163z" fill="#6e5a64"/></g><defs><filter id="A" x="35" y="19" width="183.636" height="220" filterUnits="userSpaceOnUse" color-interpolation-filters="sRGB"><feFlood flood-opacity="0" result="A"/><feColorMatrix in="SourceAlpha" values="0 0 0 0 0 0 0 0 0 0 0 0 0 0 0 0 0 0 127 0"/><feOffset dx="2" dy="4"/><feGaussianBlur stdDeviation="5"/><feColorMatrix values="0 0 0 0 0 0 0 0 0 0 0 0 0 0 0 0 0 0 0.4 0"/><feBlend in2="A"/><feBlend in="SourceGraphic"/></filter></defs></svg>