<svg width="448" height="550" viewBox="0 0 448 550" fill="none" xmlns="http://www.w3.org/2000/svg">
<path d="M440.385 69.2287L227.062 0.481765C225.065 -0.160588 222.936 -0.160588 220.939 0.481765L7.61566 69.2287C3.09786 70.6777 0.000999955 75.1409 0 80.2056V332.278C0 433.588 143.823 523.716 220.833 549.472C222.916 550.176 225.15 550.176 227.233 549.472C304.157 523.714 447.98 433.587 447.98 332.278V80.2045C447.981 75.1463 444.894 70.6852 440.385 69.2287Z" fill="url(#paint0_linear)"/>
<path d="M198.727 331.922C198.987 316.427 200.745 304.188 204 295.203C207.255 286.219 213.896 276.258 223.922 265.32L249.508 238.953C260.445 226.583 265.914 213.302 265.914 199.109C265.914 185.438 262.333 174.76 255.172 167.078C248.01 159.266 237.594 155.359 223.922 155.359C210.641 155.359 199.964 158.875 191.891 165.906C183.818 172.938 179.781 182.378 179.781 194.227H143.648C143.909 173.133 151.396 156.141 166.109 143.25C180.953 130.229 200.224 123.719 223.922 123.719C248.531 123.719 267.672 130.359 281.344 143.641C295.146 156.792 302.047 174.891 302.047 197.938C302.047 220.724 291.5 243.185 270.406 265.32L249.117 286.414C239.612 296.961 234.859 312.13 234.859 331.922H198.727ZM197.164 393.836C197.164 387.977 198.922 383.094 202.438 379.188C206.083 375.151 211.422 373.133 218.453 373.133C225.484 373.133 230.823 375.151 234.469 379.188C238.115 383.094 239.938 387.977 239.938 393.836C239.938 399.695 238.115 404.578 234.469 408.484C230.823 412.26 225.484 414.148 218.453 414.148C211.422 414.148 206.083 412.26 202.438 408.484C198.922 404.578 197.164 399.695 197.164 393.836Z" fill="white"/>
<defs>
<linearGradient id="paint0_linear" x1="0" y1="0" x2="448" y2="550" gradientUnits="userSpaceOnUse">
<stop stop-color="#001895"/>
<stop offset="1" stop-color="#1AC7FE"/>
</linearGradient>
</defs>
</svg>
