<svg width="250" height="250" viewBox="0 0 250 250" fill="none" xmlns="http://www.w3.org/2000/svg">
<rect width="250" height="250" fill="white"/>
<g filter="url(#filter0_d)">
<rect x="47" y="47" width="156" height="156" rx="20" fill="black"/>
<g clip-path="url(#clip0)">
<path d="M58 72.5C58 66.9772 62.4772 62.5 68 62.5C73.5228 62.5 78 66.9772 78 72.5C78 78.0228 73.5228 82.5 68 82.5C62.4772 82.5 58 78.0228 58 72.5Z" fill="url(#paint0_linear)"/>
<path d="M58 107.5C58 101.977 62.4772 97.5 68 97.5C73.5228 97.5 78 101.977 78 107.5C78 113.023 73.5228 117.5 68 117.5C62.4772 117.5 58 113.023 58 107.5Z" fill="url(#paint1_linear)"/>
<path d="M58 142.5C58 136.977 62.4772 132.5 68 132.5C73.5228 132.5 78 136.977 78 142.5C78 148.023 73.5228 152.5 68 152.5C62.4772 152.5 58 148.023 58 142.5Z" fill="url(#paint2_linear)"/>
<path d="M58 177.5C58 171.977 62.4772 167.5 68 167.5C73.5228 167.5 78 171.977 78 177.5C78 183.023 73.5228 187.5 68 187.5C62.4772 187.5 58 183.023 58 177.5Z" fill="url(#paint3_linear)"/>
</g>
<g clip-path="url(#clip1)">
<path d="M84 72.5C84 66.9772 88.4772 62.5 94 62.5H180C185.523 62.5 190 66.9772 190 72.5C190 78.0228 185.523 82.5 180 82.5H94C88.4772 82.5 84 78.0228 84 72.5Z" fill="url(#paint4_linear)"/>
<path d="M84 107.5C84 101.977 88.4772 97.5 94 97.5H153C158.523 97.5 163 101.977 163 107.5C163 113.023 158.523 117.5 153 117.5H94C88.4772 117.5 84 113.023 84 107.5Z" fill="url(#paint5_linear)"/>
<path d="M84 142.5C84 136.977 88.4772 132.5 94 132.5H131C136.523 132.5 141 136.977 141 142.5C141 148.023 136.523 152.5 131 152.5H94C88.4772 152.5 84 148.023 84 142.5Z" fill="url(#paint6_linear)"/>
<path d="M84 177.5C84 171.977 88.4772 167.5 94 167.5H185C190.523 167.5 195 171.977 195 177.5C195 183.023 190.523 187.5 185 187.5H94C88.4772 187.5 84 183.023 84 177.5Z" fill="url(#paint7_linear)"/>
</g>
</g>
<defs>
<filter id="filter0_d" x="44" y="44" width="166" height="166" filterUnits="userSpaceOnUse" color-interpolation-filters="sRGB">
<feFlood flood-opacity="0" result="BackgroundImageFix"/>
<feColorMatrix in="SourceAlpha" type="matrix" values="0 0 0 0 0 0 0 0 0 0 0 0 0 0 0 0 0 0 127 0"/>
<feOffset dx="2" dy="2"/>
<feGaussianBlur stdDeviation="2.5"/>
<feColorMatrix type="matrix" values="0 0 0 0 0 0 0 0 0 0 0 0 0 0 0 0 0 0 0.5 0"/>
<feBlend mode="normal" in2="BackgroundImageFix" result="effect1_dropShadow"/>
<feBlend mode="normal" in="SourceGraphic" in2="effect1_dropShadow" result="shape"/>
</filter>
<linearGradient id="paint0_linear" x1="58" y1="62.5" x2="78.1379" y2="62.6398" gradientUnits="userSpaceOnUse">
<stop stop-color="#B578D8"/>
<stop stop-color="#0066FF"/>
<stop offset="0.0001" stop-color="#B578D8"/>
<stop offset="1" stop-color="#63B9D6"/>
</linearGradient>
<linearGradient id="paint1_linear" x1="58" y1="97.5" x2="78.1379" y2="97.6398" gradientUnits="userSpaceOnUse">
<stop stop-color="#B578D8"/>
<stop stop-color="#0066FF"/>
<stop offset="0.0001" stop-color="#B578D8"/>
<stop offset="1" stop-color="#63B9D6"/>
</linearGradient>
<linearGradient id="paint2_linear" x1="58" y1="132.5" x2="78.1379" y2="132.64" gradientUnits="userSpaceOnUse">
<stop stop-color="#B578D8"/>
<stop stop-color="#0066FF"/>
<stop offset="0.0001" stop-color="#B578D8"/>
<stop offset="1" stop-color="#63B9D6"/>
</linearGradient>
<linearGradient id="paint3_linear" x1="58" y1="167.5" x2="78.1379" y2="167.64" gradientUnits="userSpaceOnUse">
<stop stop-color="#B578D8"/>
<stop stop-color="#0066FF"/>
<stop offset="0.0001" stop-color="#B578D8"/>
<stop offset="1" stop-color="#63B9D6"/>
</linearGradient>
<linearGradient id="paint4_linear" x1="84" y1="62.5" x2="190.592" y2="66.4232" gradientUnits="userSpaceOnUse">
<stop stop-color="#B578D8"/>
<stop stop-color="#0066FF"/>
<stop offset="0.0001" stop-color="#B578D8"/>
<stop offset="1" stop-color="#63B9D6"/>
</linearGradient>
<linearGradient id="paint5_linear" x1="84" y1="97.5" x2="163.489" y2="99.6804" gradientUnits="userSpaceOnUse">
<stop stop-color="#B578D8"/>
<stop stop-color="#0066FF"/>
<stop offset="0.0001" stop-color="#B578D8"/>
<stop offset="1" stop-color="#63B9D6"/>
</linearGradient>
<linearGradient id="paint6_linear" x1="84" y1="132.5" x2="141.373" y2="133.636" gradientUnits="userSpaceOnUse">
<stop stop-color="#B578D8"/>
<stop stop-color="#0066FF"/>
<stop offset="0.0001" stop-color="#B578D8"/>
<stop offset="1" stop-color="#63B9D6"/>
</linearGradient>
<linearGradient id="paint7_linear" x1="84" y1="167.5" x2="195.605" y2="171.801" gradientUnits="userSpaceOnUse">
<stop stop-color="#B578D8"/>
<stop stop-color="#0066FF"/>
<stop offset="0.0001" stop-color="#B578D8"/>
<stop offset="1" stop-color="#63B9D6"/>
</linearGradient>
<clipPath id="clip0">
<rect width="31" height="125" fill="white" transform="translate(47 62.5)"/>
</clipPath>
<clipPath id="clip1">
<rect width="119" height="125" fill="white" transform="translate(84 62.5)"/>
</clipPath>
</defs>
</svg>
