<svg width="250" height="250" viewBox="0 0 250 250" fill="none" xmlns="http://www.w3.org/2000/svg">
<g clip-path="url(#clip0)">
<g filter="url(#filter0_d)">
<path d="M84.6796 230.646C96.9308 237.216 110.824 241 125.5 241C140.175 241 154.069 237.216 166.32 230.646V217.581H84.6796V230.646Z" fill="#D29B6E"/>
<path d="M204.223 129.757H201.308V65.3539H49.6916V129.757H46.7759C38.7244 129.757 32.1973 136.31 32.1973 144.394C32.1973 152.478 38.7244 159.031 46.7759 159.031H49.9861C52.973 198.322 85.6007 229.288 125.5 229.288C165.398 229.288 198.026 198.322 201.013 159.031H204.223C212.275 159.031 218.802 152.478 218.802 144.394C218.802 136.311 212.275 129.757 204.223 129.757Z" fill="#F5B97D"/>
<path d="M177.982 77.0636V65.3539H49.6915V129.757H47.608C39.9819 129.757 33.0329 135.265 32.2732 142.883C31.399 151.645 38.2285 159.03 46.7765 159.03H49.9867C52.9735 198.321 85.6013 229.288 125.5 229.288C129.489 229.288 133.379 228.898 137.199 228.301C100.866 222.671 73.0172 191.23 73.0172 153.175V112.191C73.0172 99.2568 83.4602 88.7712 96.343 88.7712H166.32C172.761 88.7733 177.982 83.5312 177.982 77.0636Z" fill="#E3AA75"/>
<path d="M90.511 147.83C87.288 147.83 84.6796 145.209 84.6796 141.975V136.121C84.6796 132.887 87.288 130.266 90.511 130.266C93.734 130.266 96.3424 132.887 96.3424 136.121V141.975C96.3424 145.209 93.7347 147.83 90.511 147.83Z" fill="#5A4650"/>
<path d="M160.488 147.83C157.265 147.83 154.657 145.209 154.657 141.975V136.121C154.657 132.887 157.265 130.266 160.488 130.266C163.711 130.266 166.32 132.887 166.32 136.121V141.975C166.32 145.209 163.711 147.83 160.488 147.83Z" fill="#5A4650"/>
<path d="M96.3423 123.902H84.6795C81.4565 123.902 78.848 121.281 78.848 118.048C78.848 114.815 81.4565 112.193 84.6795 112.193H96.3423C99.5653 112.193 102.174 114.815 102.174 118.048C102.174 121.281 99.566 123.902 96.3423 123.902Z" fill="#6E5A64"/>
<path d="M166.32 123.902H154.657C151.434 123.902 148.825 121.281 148.825 118.048C148.825 114.815 151.434 112.193 154.657 112.193H166.32C169.543 112.193 172.151 114.815 172.151 118.048C172.151 121.281 169.543 123.902 166.32 123.902Z" fill="#6E5A64"/>
<path d="M101.807 168.371C99.971 168.371 99.2447 169.986 99.5498 171.804C101.444 183.076 112.341 191.721 125.5 191.721C138.658 191.721 149.555 183.076 151.449 171.804C151.754 169.986 149.752 168.371 147.916 168.371H101.807Z" fill="white"/>
<path d="M190.836 53.6451H60.163C42.3579 53.6451 28.7104 69.5278 31.3209 87.2109L38.0287 132.651L51.1214 131.027C56.9649 130.302 61.3545 125.318 61.3545 119.406V88.7736C61.3545 82.3059 66.5763 77.0639 73.0174 77.0639H177.983C184.424 77.0639 189.645 82.3059 189.645 88.7736V119.405C189.645 125.317 194.035 130.302 199.879 131.026L212.971 132.65L219.679 87.2102C222.289 69.5271 208.641 53.6451 190.836 53.6451Z" fill="#5A4650"/>
<path d="M204.046 14.1153C202.924 10.6286 198.891 8.93601 195.705 10.7208C189.63 14.1245 178.337 18.5125 160.488 18.5125H102.173C79.6291 18.5125 61.3531 36.8612 61.3531 59.4965C61.3531 69.1972 69.1855 77.0611 78.8474 77.0611H172.15C194.064 77.0611 215.977 51.2248 204.046 14.1153Z" fill="#64505A"/>
<path d="M96.0671 38.9257C96.1553 47.2273 103.478 53.645 111.747 53.645H190.836C195.032 53.645 198.984 54.5534 202.56 56.1339C207.872 45.3076 209.439 30.8776 204.038 14.0958C202.922 10.6263 198.891 8.93722 195.721 10.7155C189.65 14.1208 178.352 18.5165 160.488 18.5165H102.173C101.809 18.7315 101.396 18.9743 101.032 19.1893C97.8789 25.002 96.065 31.6518 96.065 38.7372C96.0657 38.7993 96.0664 38.8621 96.0671 38.9257Z" fill="#6E5A64"/>
</g>
</g>
<defs>
<filter id="filter0_d" x="23" y="4" width="209" height="251" filterUnits="userSpaceOnUse" color-interpolation-filters="sRGB">
<feFlood flood-opacity="0" result="BackgroundImageFix"/>
<feColorMatrix in="SourceAlpha" type="matrix" values="0 0 0 0 0 0 0 0 0 0 0 0 0 0 0 0 0 0 127 0"/>
<feOffset dx="2" dy="4"/>
<feGaussianBlur stdDeviation="5"/>
<feColorMatrix type="matrix" values="0 0 0 0 0 0 0 0 0 0 0 0 0 0 0 0 0 0 0.4 0"/>
<feBlend mode="normal" in2="BackgroundImageFix" result="effect1_dropShadow"/>
<feBlend mode="normal" in="SourceGraphic" in2="effect1_dropShadow" result="shape"/>
</filter>
<clipPath id="clip0">
<rect width="250" height="250" fill="white"/>
</clipPath>
</defs>
</svg>
