<svg xmlns="http://www.w3.org/2000/svg" xmlns:xlink="http://www.w3.org/1999/xlink" width="688" height="460" fill="none" xmlns:v="https://vecta.io/nano"><style><![CDATA[.B{fill:#fff}.C{fill:#ffcf54}.D{stroke-linecap:round}.E{stroke-linejoin:round}.F{stroke-width:3}.G{stroke:#049da3}.H{fill:#5a4650}.I{fill:#6e5a64}]]></style><g clip-path="url(#B)"><rect width="688" height="460" rx="23" fill="#141429"/><g class="B"><path d="M231.455 35.45c0-.893.199-1.69.598-2.392.407-.711.958-1.261 1.651-1.651.702-.399 1.486-.598 2.353-.598 1.014 0 1.902.26 2.665.78s1.296 1.239 1.599 2.158h-2.093a2.16 2.16 0 0 0-.884-.975c-.373-.217-.806-.325-1.3-.325-.529 0-1.001.126-1.417.377-.407.243-.728.589-.962 1.04-.225.451-.338.979-.338 1.586 0 .598.113 1.127.338 1.586a2.63 2.63 0 0 0 .962 1.053c.416.243.888.364 1.417.364.494 0 .927-.108 1.3-.325.381-.225.676-.555.884-.988h2.093c-.303.927-.836 1.651-1.599 2.171-.754.511-1.642.767-2.665.767-.867 0-1.651-.195-2.353-.585a4.44 4.44 0 0 1-1.651-1.651c-.399-.702-.598-1.499-.598-2.392zm17.311-2.652l-4.459 10.608h-1.937l1.56-3.588-2.886-7.02h2.041l1.859 5.031 1.885-5.031h1.937zm2.801 1.053a2.61 2.61 0 0 1 .962-.845 3.02 3.02 0 0 1 1.417-.325 3.12 3.12 0 0 1 1.664.455c.502.303.897.737 1.183 1.3.294.555.442 1.2.442 1.937s-.148 1.391-.442 1.963a3.23 3.23 0 0 1-1.183 1.313c-.494.312-1.049.468-1.664.468-.538 0-1.01-.104-1.417-.312a2.81 2.81 0 0 1-.962-.832V40h-1.82v-9.62h1.82v3.471zm3.809 2.522c0-.433-.091-.806-.273-1.118-.174-.321-.408-.563-.702-.728a1.84 1.84 0 0 0-.936-.247c-.33 0-.642.087-.936.26-.286.165-.52.407-.702.728-.174.321-.26.698-.26 1.131s.086.81.26 1.131a1.99 1.99 0 0 0 .702.741c.294.165.606.247.936.247.338 0 .65-.087.936-.26.294-.173.528-.42.702-.741.182-.321.273-.702.273-1.144zm9.876-.13a4.26 4.26 0 0 1-.052.702h-5.265c.043.52.225.927.546 1.222s.715.442 1.183.442c.676 0 1.157-.29 1.443-.871h1.963c-.208.693-.607 1.265-1.196 1.716-.589.442-1.313.663-2.171.663-.693 0-1.317-.152-1.872-.455a3.35 3.35 0 0 1-1.287-1.313c-.303-.563-.455-1.213-.455-1.95 0-.745.152-1.4.455-1.963s.728-.997 1.274-1.3 1.174-.455 1.885-.455c.685 0 1.296.147 1.833.442a3.05 3.05 0 0 1 1.261 1.261c.303.537.455 1.157.455 1.859zm-1.885-.52c-.009-.468-.178-.841-.507-1.118-.329-.286-.732-.429-1.209-.429a1.66 1.66 0 0 0-1.144.416c-.303.269-.49.646-.559 1.131h3.419zm5.034-1.807a2.58 2.58 0 0 1 .91-.897c.381-.217.814-.325 1.3-.325v1.911h-.481c-.572 0-1.006.134-1.3.403-.286.269-.429.737-.429 1.404V40h-1.82v-7.202h1.82v1.118zm6.191 6.201c-.589 0-1.118-.104-1.586-.312-.468-.217-.84-.507-1.118-.871a2.22 2.22 0 0 1-.442-1.209h1.833c.035.277.169.507.403.689.243.182.542.273.897.273.347 0 .616-.069.806-.208.2-.139.299-.316.299-.533 0-.234-.121-.407-.364-.52-.234-.121-.611-.251-1.131-.39-.537-.13-.979-.264-1.326-.403-.338-.139-.632-.351-.884-.637-.242-.286-.364-.672-.364-1.157a1.89 1.89 0 0 1 .338-1.092c.234-.329.564-.589.988-.78.434-.191.941-.286 1.521-.286.858 0 1.543.217 2.054.65.512.425.793 1.001.845 1.729h-1.742c-.026-.286-.147-.511-.364-.676-.208-.173-.489-.26-.845-.26-.329 0-.585.061-.767.182-.173.121-.26.29-.26.507 0 .243.122.429.364.559.243.121.62.247 1.131.377.52.13.949.264 1.287.403a2.19 2.19 0 0 1 .871.65c.252.286.382.667.39 1.144 0 .416-.117.789-.351 1.118-.225.329-.554.589-.988.78-.424.182-.923.273-1.495.273zm11.023-3.874a4.26 4.26 0 0 1-.052.702h-5.265c.044.52.226.927.546 1.222a1.68 1.68 0 0 0 1.183.442c.676 0 1.157-.29 1.443-.871h1.963a3.31 3.31 0 0 1-1.196 1.716c-.589.442-1.313.663-2.171.663-.693 0-1.317-.152-1.872-.455a3.35 3.35 0 0 1-1.287-1.313c-.303-.563-.455-1.213-.455-1.95 0-.745.152-1.4.455-1.963a3.18 3.18 0 0 1 1.274-1.3c.546-.303 1.175-.455 1.885-.455.685 0 1.296.147 1.833.442.546.295.967.715 1.261 1.261.304.537.455 1.157.455 1.859zm-1.885-.52c-.008-.468-.177-.841-.507-1.118-.329-.286-.732-.429-1.209-.429-.45 0-.832.139-1.144.416-.303.269-.489.646-.559 1.131h3.419zm2.746.676c0-.745.152-1.395.455-1.95.303-.563.724-.997 1.261-1.3.537-.312 1.153-.468 1.846-.468.893 0 1.629.225 2.21.676.589.442.984 1.066 1.183 1.872h-1.963a1.39 1.39 0 0 0-.533-.728c-.243-.182-.546-.273-.91-.273-.52 0-.932.191-1.235.572-.303.373-.455.906-.455 1.599 0 .685.152 1.218.455 1.599.303.373.715.559 1.235.559.737 0 1.218-.329 1.443-.988h1.963c-.199.78-.594 1.4-1.183 1.859s-1.326.689-2.21.689c-.693 0-1.309-.152-1.846-.455-.537-.312-.958-.745-1.261-1.3-.303-.563-.455-1.218-.455-1.963zm15.087-3.601V40h-1.833v-.91c-.234.312-.541.559-.923.741a2.86 2.86 0 0 1-1.222.26c-.563 0-1.061-.117-1.495-.351a2.62 2.62 0 0 1-1.027-1.053c-.242-.468-.364-1.023-.364-1.664v-4.225h1.82v3.965c0 .572.143 1.014.429 1.326.286.303.676.455 1.17.455.503 0 .897-.152 1.183-.455.286-.312.429-.754.429-1.326v-3.965h1.833zm3.616 1.118a2.58 2.58 0 0 1 .91-.897c.381-.217.815-.325 1.3-.325v1.911h-.481c-.572 0-1.005.134-1.3.403-.286.269-.429.737-.429 1.404V40h-1.82v-7.202h1.82v1.118zm4.359-1.976c-.321 0-.59-.1-.806-.299-.208-.208-.312-.464-.312-.767a1 1 0 0 1 .312-.754c.216-.208.485-.312.806-.312s.585.104.793.312c.216.199.325.451.325.754s-.109.559-.325.767a1.1 1.1 0 0 1-.793.299zm.897.858V40h-1.82v-7.202h1.82zm3.917 1.495v3.484c0 .243.056.42.169.533.121.104.321.156.598.156h.845V40h-1.144c-1.534 0-2.301-.745-2.301-2.236v-3.471h-.858v-1.495h.858v-1.781h1.833v1.781h1.612v1.495h-1.612zm9.811-1.495l-4.459 10.608h-1.937l1.56-3.588-2.886-7.02h2.041l1.859 5.031 1.885-5.031h1.937zM239.658 172h-1.82l-4.121-6.227V172h-1.82v-9.087h1.82l4.121 6.24v-6.24h1.82V172zm8.494-3.757a4.37 4.37 0 0 1-.052.702h-5.265c.043.52.225.927.546 1.222a1.68 1.68 0 0 0 1.183.442c.676 0 1.157-.29 1.443-.871h1.963c-.208.693-.607 1.265-1.196 1.716-.59.442-1.313.663-2.171.663-.694 0-1.318-.152-1.872-.455a3.35 3.35 0 0 1-1.287-1.313c-.304-.563-.455-1.213-.455-1.95 0-.745.151-1.4.455-1.963a3.18 3.18 0 0 1 1.274-1.3c.546-.303 1.174-.455 1.885-.455.684 0 1.295.147 1.833.442a3.05 3.05 0 0 1 1.261 1.261c.303.537.455 1.157.455 1.859zm-1.885-.52c-.009-.468-.178-.841-.507-1.118-.33-.286-.733-.429-1.209-.429-.451 0-.832.139-1.144.416-.304.269-.49.646-.559 1.131h3.419zm5.332-1.43v3.484c0 .243.056.42.169.533.121.104.321.156.598.156h.845V172h-1.144c-1.534 0-2.301-.745-2.301-2.236v-3.471h-.858v-1.495h.858v-1.781h1.833v1.781h1.612v1.495h-1.612zm12.905-1.495L262.398 172h-1.963l-1.313-5.031-1.313 5.031h-1.976l-2.119-7.202h1.846l1.274 5.486 1.378-5.486h1.924l1.352 5.473 1.274-5.473h1.742zm4.183 7.319c-.694 0-1.318-.152-1.872-.455a3.41 3.41 0 0 1-1.313-1.313c-.312-.563-.468-1.213-.468-1.95s.16-1.387.481-1.95a3.38 3.38 0 0 1 1.339-1.3c.563-.312 1.191-.468 1.885-.468s1.321.156 1.885.468c.563.303 1.005.737 1.326 1.3.329.563.494 1.213.494 1.95s-.169 1.387-.507 1.95a3.46 3.46 0 0 1-1.352 1.313c-.564.303-1.196.455-1.898.455zm0-1.586a1.9 1.9 0 0 0 .923-.234c.294-.165.528-.407.702-.728s.26-.711.26-1.17c0-.685-.182-1.209-.546-1.573a1.74 1.74 0 0 0-1.313-.559 1.74 1.74 0 0 0-1.313.559c-.347.364-.52.888-.52 1.573s.169 1.213.507 1.586a1.72 1.72 0 0 0 1.3.546zm6.912-4.615a2.58 2.58 0 0 1 .91-.897c.381-.217.815-.325 1.3-.325v1.911h-.481c-.572 0-1.005.134-1.3.403-.286.269-.429.737-.429 1.404V172h-1.82v-7.202h1.82v1.118zm7.7 6.084l-2.444-3.068V172h-1.82v-9.62h1.82v5.473l2.418-3.055h2.366l-3.172 3.614 3.198 3.588h-2.366zm4.25-8.06c-.32 0-.589-.1-.806-.299-.208-.208-.312-.464-.312-.767a1 1 0 0 1 .312-.754 1.12 1.12 0 0 1 .806-.312c.321 0 .585.104.793.312a.98.98 0 0 1 .325.754 1.02 1.02 0 0 1-.325.767 1.1 1.1 0 0 1-.793.299zm.897.858V172h-1.82v-7.202h1.82zm5.79-.104c.858 0 1.551.273 2.08.819.528.537.793 1.291.793 2.262V172h-1.82v-3.978c0-.572-.143-1.01-.429-1.313-.286-.312-.676-.468-1.17-.468-.503 0-.902.156-1.196.468-.286.303-.429.741-.429 1.313V172h-1.82v-7.202h1.82v.897c.242-.312.55-.555.923-.728.381-.182.797-.273 1.248-.273zm7.424-.013c.538 0 1.01.108 1.417.325a2.55 2.55 0 0 1 .962.819v-1.027h1.833v7.254c0 .667-.134 1.261-.403 1.781a2.93 2.93 0 0 1-1.209 1.248c-.537.312-1.187.468-1.95.468-1.022 0-1.863-.238-2.522-.715-.65-.477-1.018-1.127-1.105-1.95h1.807a1.33 1.33 0 0 0 .611.78c.321.199.707.299 1.157.299.529 0 .958-.16 1.287-.481.33-.312.494-.789.494-1.43v-1.118c-.234.338-.559.62-.975.845-.407.225-.875.338-1.404.338-.606 0-1.161-.156-1.664-.468s-.901-.75-1.196-1.313c-.286-.572-.429-1.226-.429-1.963 0-.728.143-1.374.429-1.937.295-.563.689-.997 1.183-1.3.503-.303 1.062-.455 1.677-.455zm2.379 3.718c0-.442-.086-.819-.26-1.131-.173-.321-.407-.563-.702-.728a1.84 1.84 0 0 0-.949-.26 1.84 1.84 0 0 0-.936.247c-.286.165-.52.407-.702.728-.173.312-.26.685-.26 1.118s.087.815.26 1.144a1.99 1.99 0 0 0 .702.741c.295.173.607.26.936.26a1.91 1.91 0 0 0 .949-.247c.295-.173.529-.416.702-.728.174-.321.26-.702.26-1.144z"/><path d="M238.215 301.656a2.13 2.13 0 0 0-.858-.871c-.364-.199-.789-.299-1.274-.299-.537 0-1.014.121-1.43.364s-.741.589-.975 1.04-.351.971-.351 1.56c0 .607.117 1.135.351 1.586.243.451.576.797 1.001 1.04s.919.364 1.482.364c.693 0 1.261-.182 1.703-.546.442-.373.732-.888.871-1.547h-3.12v-1.391h4.914v1.586a4.25 4.25 0 0 1-.78 1.755 4.45 4.45 0 0 1-1.547 1.3c-.624.321-1.326.481-2.106.481-.875 0-1.668-.195-2.379-.585a4.41 4.41 0 0 1-1.664-1.651c-.399-.702-.598-1.499-.598-2.392s.199-1.69.598-2.392c.407-.711.962-1.261 1.664-1.651.711-.399 1.499-.598 2.366-.598 1.023 0 1.911.251 2.665.754.754.494 1.274 1.192 1.56 2.093h-2.093zM249.637 308h-1.82l-4.121-6.227V308h-1.82v-9.087h1.82l4.121 6.24v-6.24h1.82V308zm3.592-9.074v5.616c0 .615.16 1.088.481 1.417.321.321.771.481 1.352.481.589 0 1.044-.16 1.365-.481.321-.329.481-.802.481-1.417v-5.616h1.833v5.603c0 .771-.169 1.426-.507 1.963-.329.529-.776.927-1.339 1.196-.555.269-1.174.403-1.859.403-.676 0-1.291-.134-1.846-.403a3.09 3.09 0 0 1-1.3-1.196c-.321-.537-.481-1.192-.481-1.963v-5.603h1.82zm12.146-3.237l-3.51 14.664h-1.781l3.51-14.664h1.781zm3.267 10.868h2.99V308h-4.81v-9.074h1.82v7.631zm5.07-6.617c-.321 0-.59-.1-.806-.299-.208-.208-.312-.464-.312-.767a1 1 0 0 1 .312-.754c.216-.208.485-.312.806-.312s.585.104.793.312c.216.199.325.451.325.754s-.109.559-.325.767c-.208.199-.473.299-.793.299zm.897.858V308h-1.82v-7.202h1.82zm5.789-.104c.858 0 1.551.273 2.08.819.528.537.793 1.291.793 2.262V308h-1.82v-3.978c0-.572-.143-1.01-.429-1.313-.286-.312-.676-.468-1.17-.468-.503 0-.902.156-1.196.468-.286.303-.429.741-.429 1.313V308h-1.82v-7.202h1.82v.897c.242-.312.55-.555.923-.728.381-.182.797-.273 1.248-.273zm11.402.104V308h-1.833v-.91c-.234.312-.541.559-.923.741-.372.173-.78.26-1.222.26-.563 0-1.061-.117-1.495-.351-.433-.243-.775-.594-1.027-1.053-.242-.468-.364-1.023-.364-1.664v-4.225h1.82v3.965c0 .572.143 1.014.429 1.326.286.303.676.455 1.17.455.503 0 .897-.152 1.183-.455.286-.312.429-.754.429-1.326v-3.965h1.833zm5.774 7.202l-1.482-2.236-1.313 2.236h-1.95l2.353-3.614-2.379-3.588h2.054l1.469 2.223 1.326-2.223h1.95l-2.366 3.588 2.392 3.614h-2.054zm-59.06 91.734c0 .485-.117.94-.351 1.365-.225.425-.585.767-1.079 1.027-.485.26-1.101.39-1.846.39h-1.521V406h-1.82v-9.074h3.341c.702 0 1.3.121 1.794.364s.862.576 1.105 1.001c.251.425.377.906.377 1.443zm-3.354 1.313c.503 0 .875-.113 1.118-.338.243-.234.364-.559.364-.975 0-.884-.494-1.326-1.482-1.326h-1.443v2.639h1.443zm6.466-1.131c.234-.381.538-.68.91-.897.382-.217.815-.325 1.3-.325v1.911h-.481c-.572 0-1.005.134-1.3.403-.286.269-.429.737-.429 1.404V406h-1.82v-7.202h1.82v1.118zm6.634 6.201c-.693 0-1.317-.152-1.872-.455-.555-.312-.992-.75-1.313-1.313-.312-.563-.468-1.213-.468-1.95s.16-1.387.481-1.95c.329-.563.776-.997 1.339-1.3.563-.312 1.192-.468 1.885-.468s1.322.156 1.885.468c.563.303 1.005.737 1.326 1.3.329.563.494 1.213.494 1.95s-.169 1.387-.507 1.95c-.329.563-.78 1.001-1.352 1.313-.563.303-1.196.455-1.898.455zm0-1.586a1.9 1.9 0 0 0 .923-.234c.295-.165.529-.407.702-.728s.26-.711.26-1.17c0-.685-.182-1.209-.546-1.573a1.74 1.74 0 0 0-1.313-.559 1.74 1.74 0 0 0-1.313.559c-.347.364-.52.888-.52 1.573s.169 1.213.507 1.586a1.72 1.72 0 0 0 1.3.546zm7.913-5.85c.537 0 1.01.108 1.417.325.407.208.728.481.962.819v-1.027h1.833v7.254c0 .667-.134 1.261-.403 1.781-.269.529-.672.945-1.209 1.248-.537.312-1.187.468-1.95.468-1.023 0-1.863-.238-2.522-.715-.65-.477-1.018-1.127-1.105-1.95h1.807c.095.329.299.589.611.78.321.199.706.299 1.157.299.529 0 .958-.16 1.287-.481.329-.312.494-.789.494-1.43v-1.118c-.234.338-.559.62-.975.845-.407.225-.875.338-1.404.338-.607 0-1.161-.156-1.664-.468s-.901-.75-1.196-1.313c-.286-.572-.429-1.226-.429-1.963 0-.728.143-1.374.429-1.937.295-.563.689-.997 1.183-1.3.503-.303 1.062-.455 1.677-.455zm2.379 3.718c0-.442-.087-.819-.26-1.131-.173-.321-.407-.563-.702-.728-.295-.173-.611-.26-.949-.26a1.84 1.84 0 0 0-.936.247c-.286.165-.52.407-.702.728-.173.312-.26.685-.26 1.118s.087.815.26 1.144a1.99 1.99 0 0 0 .702.741c.295.173.607.26.936.26a1.91 1.91 0 0 0 .949-.247c.295-.173.529-.416.702-.728.173-.321.26-.702.26-1.144zm5.431-2.483a2.58 2.58 0 0 1 .91-.897c.381-.217.814-.325 1.3-.325v1.911h-.481c-.572 0-1.006.134-1.3.403-.286.269-.429.737-.429 1.404V406h-1.82v-7.202h1.82v1.118zm2.967 2.457c0-.728.143-1.374.429-1.937.295-.563.689-.997 1.183-1.3.503-.303 1.062-.455 1.677-.455.538 0 1.006.108 1.404.325a2.84 2.84 0 0 1 .975.819v-1.027h1.833V406h-1.833v-1.053c-.234.338-.559.62-.975.845-.407.217-.879.325-1.417.325-.606 0-1.161-.156-1.664-.468-.494-.312-.888-.75-1.183-1.313-.286-.572-.429-1.226-.429-1.963zm5.668.026c0-.442-.086-.819-.26-1.131-.173-.321-.407-.563-.702-.728a1.84 1.84 0 0 0-.949-.26 1.84 1.84 0 0 0-.936.247c-.286.165-.52.407-.702.728-.173.312-.26.685-.26 1.118s.087.815.26 1.144a1.99 1.99 0 0 0 .702.741c.295.173.607.26.936.26a1.91 1.91 0 0 0 .949-.247c.295-.173.529-.416.702-.728.174-.321.26-.702.26-1.144zm12.555-3.705c.884 0 1.595.273 2.132.819.546.537.819 1.291.819 2.262V406h-1.82v-3.978c0-.563-.143-.992-.429-1.287-.286-.303-.676-.455-1.17-.455s-.888.152-1.183.455c-.286.295-.429.724-.429 1.287V406h-1.82v-3.978c0-.563-.143-.992-.429-1.287-.286-.303-.676-.455-1.17-.455-.503 0-.901.152-1.196.455-.286.295-.429.724-.429 1.287V406h-1.82v-7.202h1.82v.871c.234-.303.533-.542.897-.715.373-.173.78-.26 1.222-.26.563 0 1.066.121 1.508.364.442.234.784.572 1.027 1.014.234-.416.572-.75 1.014-1.001.451-.251.936-.377 1.456-.377zm13.622 0c.884 0 1.595.273 2.132.819.546.537.819 1.291.819 2.262V406h-1.82v-3.978c0-.563-.143-.992-.429-1.287-.286-.303-.676-.455-1.17-.455s-.888.152-1.183.455c-.286.295-.429.724-.429 1.287V406h-1.82v-3.978c0-.563-.143-.992-.429-1.287-.286-.303-.676-.455-1.17-.455-.503 0-.901.152-1.196.455-.286.295-.429.724-.429 1.287V406h-1.82v-7.202h1.82v.871c.234-.303.533-.542.897-.715.373-.173.78-.26 1.222-.26.563 0 1.066.121 1.508.364.442.234.784.572 1.027 1.014.234-.416.572-.75 1.014-1.001.451-.251.936-.377 1.456-.377zm5.601-.754c-.32 0-.589-.1-.806-.299-.208-.208-.312-.464-.312-.767a1 1 0 0 1 .312-.754 1.12 1.12 0 0 1 .806-.312c.321 0 .585.104.793.312a.98.98 0 0 1 .325.754 1.02 1.02 0 0 1-.325.767 1.1 1.1 0 0 1-.793.299zm.897.858V406h-1.82v-7.202h1.82zm5.789-.104c.858 0 1.552.273 2.08.819.529.537.793 1.291.793 2.262V406h-1.82v-3.978c0-.572-.143-1.01-.429-1.313-.286-.312-.676-.468-1.17-.468-.502 0-.901.156-1.196.468-.286.303-.429.741-.429 1.313V406h-1.82v-7.202h1.82v.897a2.47 2.47 0 0 1 .923-.728c.382-.182.798-.273 1.248-.273zm7.425-.013c.537 0 1.01.108 1.417.325.407.208.728.481.962.819v-1.027h1.833v7.254c0 .667-.134 1.261-.403 1.781-.269.529-.672.945-1.209 1.248-.537.312-1.187.468-1.95.468-1.023 0-1.863-.238-2.522-.715-.65-.477-1.018-1.127-1.105-1.95h1.807c.095.329.299.589.611.78.321.199.706.299 1.157.299.529 0 .958-.16 1.287-.481.329-.312.494-.789.494-1.43v-1.118c-.234.338-.559.62-.975.845-.407.225-.875.338-1.404.338-.607 0-1.161-.156-1.664-.468s-.901-.75-1.196-1.313c-.286-.572-.429-1.226-.429-1.963 0-.728.143-1.374.429-1.937.295-.563.689-.997 1.183-1.3.503-.303 1.062-.455 1.677-.455zm2.379 3.718c0-.442-.087-.819-.26-1.131-.173-.321-.407-.563-.702-.728-.295-.173-.611-.26-.949-.26a1.84 1.84 0 0 0-.936.247c-.286.165-.52.407-.702.728-.173.312-.26.685-.26 1.118s.087.815.26 1.144a1.99 1.99 0 0 0 .702.741c.295.173.607.26.936.26a1.91 1.91 0 0 0 .949-.247c.295-.173.529-.416.702-.728.173-.321.26-.702.26-1.144zm81.64-42.672V366h-.819v-2.844h-3.195V366h-.819v-6.273h.819v2.754h3.195v-2.754h.819zm5.259 0v.666h-1.71V366h-.819v-5.607h-1.719v-.666h4.248zm7.372.045V366h-.819v-4.644l-2.07 4.644h-.576l-2.079-4.653V366h-.819v-6.228h.882l2.304 5.148 2.304-5.148h.873zm2.208 5.562h2.196V366h-3.015v-6.273h.819v5.607zm6.125-7.812l-2.466 10.008h-.81l2.457-10.008h.819zm.915 5.337c0-.612.138-1.161.414-1.647a3.01 3.01 0 0 1 1.125-1.152c.48-.276 1.011-.414 1.593-.414.684 0 1.281.165 1.791.495s.882.798 1.116 1.404h-.981a1.96 1.96 0 0 0-.756-.873c-.324-.204-.714-.306-1.17-.306-.438 0-.831.102-1.179.306s-.621.495-.819.873c-.198.372-.297.81-.297 1.314 0 .498.099.936.297 1.314.198.372.471.66.819.864s.741.306 1.179.306c.456 0 .846-.099 1.17-.297a1.96 1.96 0 0 0 .756-.873h.981a2.84 2.84 0 0 1-1.116 1.395c-.51.324-1.107.486-1.791.486-.582 0-1.113-.135-1.593-.405-.474-.276-.849-.657-1.125-1.143s-.414-1.035-.414-1.647zm9.247 3.204c-.414 0-.786-.072-1.116-.216-.324-.15-.579-.354-.765-.612a1.59 1.59 0 0 1-.288-.909h.873c.03.294.15.543.36.747.216.198.528.297.936.297.39 0 .696-.096.918-.288.228-.198.342-.45.342-.756 0-.24-.066-.435-.198-.585s-.297-.264-.495-.342-.465-.162-.801-.252c-.414-.108-.747-.216-.999-.324a1.66 1.66 0 0 1-.639-.504c-.174-.234-.261-.546-.261-.936 0-.342.087-.645.261-.909s.417-.468.729-.612c.318-.144.681-.216 1.089-.216.588 0 1.068.147 1.44.441.378.294.591.684.639 1.17h-.9c-.03-.24-.156-.45-.378-.63-.222-.186-.516-.279-.882-.279-.342 0-.621.09-.837.27-.216.174-.324.42-.324.738 0 .228.063.414.189.558.132.144.291.255.477.333.192.072.459.156.801.252a7.01 7.01 0 0 1 .999.342c.252.108.468.279.648.513.18.228.27.54.27.936a1.65 1.65 0 0 1-.243.864c-.162.27-.402.489-.72.657s-.693.252-1.125.252zm5.282 0c-.414 0-.786-.072-1.116-.216-.324-.15-.579-.354-.765-.612a1.59 1.59 0 0 1-.288-.909h.873c.03.294.15.543.36.747.216.198.528.297.936.297.39 0 .696-.096.918-.288.228-.198.342-.45.342-.756 0-.24-.066-.435-.198-.585s-.297-.264-.495-.342-.465-.162-.801-.252c-.414-.108-.747-.216-.999-.324a1.66 1.66 0 0 1-.639-.504c-.174-.234-.261-.546-.261-.936 0-.342.087-.645.261-.909s.417-.468.729-.612c.318-.144.681-.216 1.089-.216.588 0 1.068.147 1.44.441.378.294.591.684.639 1.17h-.9c-.03-.24-.156-.45-.378-.63-.222-.186-.516-.279-.882-.279-.342 0-.621.09-.837.27-.216.174-.324.42-.324.738 0 .228.063.414.189.558.132.144.291.255.477.333.192.072.459.156.801.252a7.01 7.01 0 0 1 .999.342c.252.108.468.279.648.513.18.228.27.54.27.936a1.65 1.65 0 0 1-.243.864c-.162.27-.402.489-.72.657s-.693.252-1.125.252z"/></g><g class="C"><circle cx="447.5" cy="363" r="3.5"/><circle cx="456.5" cy="363" r="3.5"/><circle cx="465.5" cy="363" r="3.5"/><circle cx="474.5" cy="363" r="3.5"/></g><path d="M401.401 379.605h-2.736l-.504 1.395h-.864l2.268-6.237h.945l2.259 6.237h-.864l-.504-1.395zm-.234-.666l-1.134-3.168-1.134 3.168h2.268zm4.336 2.142c-.378 0-.717-.063-1.017-.189-.3-.132-.537-.312-.711-.54a1.46 1.46 0 0 1-.288-.801h.846c.024.246.138.447.342.603.21.156.483.234.819.234.312 0 .558-.069.738-.207s.27-.312.27-.522c0-.216-.096-.375-.288-.477-.192-.108-.489-.213-.891-.315-.366-.096-.666-.192-.9-.288a1.71 1.71 0 0 1-.594-.441c-.162-.198-.243-.456-.243-.774 0-.252.075-.483.225-.693s.363-.375.639-.495c.276-.126.591-.189.945-.189.546 0 .987.138 1.323.414s.516.654.54 1.134h-.819a.84.84 0 0 0-.315-.621c-.186-.156-.438-.234-.756-.234-.294 0-.528.063-.702.189s-.261.291-.261.495c0 .162.051.297.153.405.108.102.24.186.396.252.162.06.384.129.666.207a6.56 6.56 0 0 1 .864.288c.222.09.411.228.567.414.162.186.246.429.252.729a1.25 1.25 0 0 1-.225.729c-.15.216-.363.387-.639.513-.27.12-.582.18-.936.18zm4.703 0c-.378 0-.717-.063-1.017-.189-.3-.132-.537-.312-.711-.54a1.46 1.46 0 0 1-.288-.801h.846c.024.246.138.447.342.603.21.156.483.234.819.234.312 0 .558-.069.738-.207s.27-.312.27-.522c0-.216-.096-.375-.288-.477-.192-.108-.489-.213-.891-.315-.366-.096-.666-.192-.9-.288a1.71 1.71 0 0 1-.594-.441c-.162-.198-.243-.456-.243-.774 0-.252.075-.483.225-.693s.363-.375.639-.495c.276-.126.591-.189.945-.189.546 0 .987.138 1.323.414s.516.654.54 1.134h-.819a.84.84 0 0 0-.315-.621c-.186-.156-.438-.234-.756-.234-.294 0-.528.063-.702.189s-.261.291-.261.495c0 .162.051.297.153.405.108.102.24.186.396.252.162.06.384.129.666.207a6.56 6.56 0 0 1 .864.288c.222.09.411.228.567.414.162.186.246.429.252.729a1.25 1.25 0 0 1-.225.729c-.15.216-.363.387-.639.513-.27.12-.582.18-.936.18zm7.456-2.736a4.82 4.82 0 0 1-.027.495h-3.942c.03.486.195.867.495 1.143.306.27.675.405 1.107.405.354 0 .648-.081.882-.243.24-.168.408-.39.504-.666h.882a2.14 2.14 0 0 1-.792 1.161c-.396.294-.888.441-1.476.441-.468 0-.888-.105-1.26-.315-.366-.21-.654-.507-.864-.891-.21-.39-.315-.84-.315-1.35s.102-.957.306-1.341.489-.678.855-.882c.372-.21.798-.315 1.278-.315.468 0 .882.102 1.242.306a2.08 2.08 0 0 1 .828.846c.198.354.297.756.297 1.206zm-.846-.171c0-.312-.069-.579-.207-.801-.138-.228-.327-.399-.567-.513a1.69 1.69 0 0 0-.783-.18c-.414 0-.768.132-1.062.396-.288.264-.453.63-.495 1.098h3.114zm7.858-2.196c.384 0 .726.081 1.026.243.3.156.537.393.711.711s.261.705.261 1.161V381h-.81v-2.79c0-.492-.123-.867-.369-1.125-.24-.264-.567-.396-.981-.396-.426 0-.765.138-1.017.414-.252.27-.378.663-.378 1.179V381h-.81v-2.79c0-.492-.123-.867-.369-1.125-.24-.264-.567-.396-.981-.396-.426 0-.765.138-1.017.414-.252.27-.378.663-.378 1.179V381h-.819v-4.932h.819v.711c.162-.258.378-.456.648-.594.276-.138.579-.207.909-.207.414 0 .78.093 1.098.279s.555.459.711.819c.138-.348.366-.618.684-.81s.672-.288 1.062-.288zm4.16 1.008c.168-.294.414-.534.738-.72s.693-.279 1.107-.279a2.3 2.3 0 0 1 1.197.315c.354.21.633.507.837.891.204.378.306.819.306 1.323 0 .498-.102.942-.306 1.332a2.25 2.25 0 0 1-.846.909c-.354.216-.75.324-1.188.324-.426 0-.801-.093-1.125-.279-.318-.186-.558-.423-.72-.711V381h-.819v-6.66h.819v2.646zm3.348 1.53c0-.372-.075-.696-.225-.972a1.55 1.55 0 0 0-.612-.63c-.252-.144-.531-.216-.837-.216-.3 0-.579.075-.837.225-.252.144-.456.357-.612.639-.15.276-.225.597-.225.963 0 .372.075.699.225.981.156.276.36.489.612.639a1.69 1.69 0 0 0 .837.216c.306 0 .585-.072.837-.216a1.61 1.61 0 0 0 .612-.639c.15-.282.225-.612.225-.99zm2.734-4.176V381h-.819v-6.66h.819zm5.644 1.728l-2.97 7.254h-.846l.972-2.376-1.989-4.878h.909l1.548 3.996 1.53-3.996h.846z" class="B"/><circle cx="446.5" cy="378" r="3.5" class="C"/><path d="M401.887 391.563a1.74 1.74 0 0 1-.54 1.305c-.354.342-.897.513-1.629.513h-1.206V396h-.819v-6.273h2.025c.708 0 1.245.171 1.611.513.372.342.558.783.558 1.323zm-2.169 1.143c.456 0 .792-.099 1.008-.297s.324-.48.324-.846c0-.774-.444-1.161-1.332-1.161h-1.206v2.304h1.206zm7.435-1.638l-2.97 7.254h-.846l.972-2.376-1.989-4.878h.909l1.548 3.996 1.53-3.996h.846zm1.822.675v2.907c0 .24.051.411.153.513.102.096.279.144.531.144h.603V396h-.738c-.456 0-.798-.105-1.026-.315s-.342-.555-.342-1.035v-2.907h-.639v-.675h.639v-1.242h.819v1.242h1.287v.675h-1.287zm4.728-.765c.372 0 .708.081 1.008.243a1.64 1.64 0 0 1 .702.711c.174.318.261.705.261 1.161V396h-.81v-2.79c0-.492-.123-.867-.369-1.125-.246-.264-.582-.396-1.008-.396-.432 0-.777.135-1.035.405-.252.27-.378.663-.378 1.179V396h-.819v-6.66h.819v2.43a1.62 1.62 0 0 1 .666-.585 2.2 2.2 0 0 1 .963-.207zm5.459 5.103a2.55 2.55 0 0 1-1.26-.315 2.29 2.29 0 0 1-.882-.891c-.21-.39-.315-.84-.315-1.35 0-.504.108-.948.324-1.332.222-.39.522-.687.9-.891.378-.21.801-.315 1.269-.315s.891.105 1.269.315a2.21 2.21 0 0 1 .891.882c.222.384.333.831.333 1.341s-.114.96-.342 1.35c-.222.384-.525.681-.909.891a2.62 2.62 0 0 1-1.278.315zm0-.72a1.73 1.73 0 0 0 .828-.207c.258-.138.465-.345.621-.621.162-.276.243-.612.243-1.008s-.078-.732-.234-1.008-.36-.48-.612-.612c-.252-.138-.525-.207-.819-.207-.3 0-.576.069-.828.207-.246.132-.444.336-.594.612s-.225.612-.225 1.008c0 .402.072.741.216 1.017.15.276.348.483.594.621.246.132.516.198.81.198zm6.009-4.383c.6 0 1.086.183 1.458.549.372.36.558.882.558 1.566V396h-.81v-2.79c0-.492-.123-.867-.369-1.125-.246-.264-.582-.396-1.008-.396-.432 0-.777.135-1.035.405-.252.27-.378.663-.378 1.179V396h-.819v-4.932h.819v.702c.162-.252.381-.447.657-.585a2.08 2.08 0 0 1 .927-.207z" class="B"/><circle cx="433.5" cy="393" r="3.5" class="C"/><path d="M400.852 404.727v4.635c0 .516-.159.93-.477 1.242-.318.306-.738.459-1.26.459-.528 0-.951-.156-1.269-.468-.318-.318-.477-.75-.477-1.296h.819c.006.306.084.555.234.747.156.192.387.288.693.288s.534-.09.684-.27c.15-.186.225-.42.225-.702v-4.635h.828zm3.602 6.336c-.414 0-.786-.072-1.116-.216-.324-.15-.579-.354-.765-.612a1.59 1.59 0 0 1-.288-.909h.873c.03.294.15.543.36.747.216.198.528.297.936.297.39 0 .696-.096.918-.288.228-.198.342-.45.342-.756 0-.24-.066-.435-.198-.585s-.297-.264-.495-.342-.465-.162-.801-.252c-.414-.108-.747-.216-.999-.324a1.66 1.66 0 0 1-.639-.504c-.174-.234-.261-.546-.261-.936 0-.342.087-.645.261-.909s.417-.468.729-.612c.318-.144.681-.216 1.089-.216.588 0 1.068.147 1.44.441.378.294.591.684.639 1.17h-.9c-.03-.24-.156-.45-.378-.63-.222-.186-.516-.279-.882-.279-.342 0-.621.09-.837.27-.216.174-.324.42-.324.738 0 .228.063.414.189.558.132.144.291.255.477.333.192.072.459.156.801.252a7.01 7.01 0 0 1 .999.342c.252.108.468.279.648.513.18.228.27.54.27.936a1.65 1.65 0 0 1-.243.864c-.162.27-.402.489-.72.657s-.693.252-1.125.252z" class="B"/><g class="C"><circle cx="413.5" cy="408" r="3.5"/><circle cx="422.5" cy="408" r="3.5"/></g><path d="M397.387 422.859c0-.612.138-1.161.414-1.647a3.01 3.01 0 0 1 1.125-1.152c.48-.276 1.011-.414 1.593-.414.684 0 1.281.165 1.791.495s.882.798 1.116 1.404h-.981a1.96 1.96 0 0 0-.756-.873c-.324-.204-.714-.306-1.17-.306-.438 0-.831.102-1.179.306s-.621.495-.819.873c-.198.372-.297.81-.297 1.314 0 .498.099.936.297 1.314.198.372.471.66.819.864s.741.306 1.179.306c.456 0 .846-.099 1.17-.297a1.96 1.96 0 0 0 .756-.873h.981a2.84 2.84 0 0 1-1.116 1.395c-.51.324-1.107.486-1.791.486-.582 0-1.113-.135-1.593-.405-.474-.276-.849-.657-1.125-1.143s-.414-1.035-.414-1.647zm9.409 3.222a2.55 2.55 0 0 1-1.26-.315 2.29 2.29 0 0 1-.882-.891c-.21-.39-.315-.84-.315-1.35 0-.504.108-.948.324-1.332.222-.39.522-.687.9-.891.378-.21.801-.315 1.269-.315s.891.105 1.269.315a2.21 2.21 0 0 1 .891.882c.222.384.333.831.333 1.341s-.114.96-.342 1.35c-.222.384-.525.681-.909.891a2.62 2.62 0 0 1-1.278.315zm0-.72a1.73 1.73 0 0 0 .828-.207c.258-.138.465-.345.621-.621.162-.276.243-.612.243-1.008s-.078-.732-.234-1.008-.36-.48-.612-.612c-.252-.138-.525-.207-.819-.207-.3 0-.576.069-.828.207-.246.132-.444.336-.594.612s-.225.612-.225 1.008c0 .402.072.741.216 1.017.15.276.348.483.594.621.246.132.516.198.81.198zm7.98-4.293V426h-.819v-.729a1.62 1.62 0 0 1-.657.594c-.276.138-.582.207-.918.207-.384 0-.729-.078-1.035-.234a1.79 1.79 0 0 1-.729-.72c-.174-.318-.261-.705-.261-1.161v-2.889h.81v2.781c0 .486.123.861.369 1.125.246.258.582.387 1.008.387.438 0 .783-.135 1.035-.405s.378-.663.378-1.179v-2.709h.819zm1.077 2.457c0-.51.102-.954.306-1.332.204-.384.486-.681.846-.891.366-.21.783-.315 1.251-.315.606 0 1.104.147 1.494.441.396.294.657.702.783 1.224h-.882a1.26 1.26 0 0 0-.495-.711c-.24-.174-.54-.261-.9-.261-.468 0-.846.162-1.134.486-.288.318-.432.771-.432 1.359 0 .594.144 1.053.432 1.377s.666.486 1.134.486c.36 0 .66-.084.9-.252s.405-.408.495-.72h.882a2.19 2.19 0 0 1-.792 1.215c-.396.3-.891.45-1.485.45-.468 0-.885-.105-1.251-.315-.36-.21-.642-.507-.846-.891s-.306-.834-.306-1.35zm8.221-2.547c.372 0 .708.081 1.008.243a1.64 1.64 0 0 1 .702.711c.174.318.261.705.261 1.161V426h-.81v-2.79c0-.492-.123-.867-.369-1.125-.246-.264-.582-.396-1.008-.396-.432 0-.777.135-1.035.405-.252.27-.378.663-.378 1.179V426h-.819v-6.66h.819v2.43a1.62 1.62 0 0 1 .666-.585 2.2 2.2 0 0 1 .963-.207zm5.261-1.251c.684 0 1.275.129 1.773.387.504.252.888.615 1.152 1.089.27.474.405 1.032.405 1.674s-.135 1.2-.405 1.674c-.264.468-.648.828-1.152 1.08-.498.246-1.089.369-1.773.369h-1.953v-6.273h1.953zm0 5.598c.81 0 1.428-.213 1.854-.639.426-.432.639-1.035.639-1.809 0-.78-.216-1.389-.648-1.827-.426-.438-1.041-.657-1.845-.657h-1.134v4.932h1.134zm7.552-2.556c.228.036.435.129.621.279a1.57 1.57 0 0 1 .45.558c.114.222.171.459.171.711a1.59 1.59 0 0 1-.243.864c-.162.252-.399.453-.711.603-.306.144-.669.216-1.089.216h-2.34v-6.273h2.25c.426 0 .789.072 1.089.216.3.138.525.327.675.567s.225.51.225.81c0 .372-.102.681-.306.927-.198.24-.462.414-.792.522zm-2.322-.333h1.377c.384 0 .681-.09.891-.27s.315-.429.315-.747-.105-.567-.315-.747-.513-.27-.909-.27h-1.359v2.034zm1.449 2.889c.408 0 .726-.096.954-.288s.342-.459.342-.801c0-.348-.12-.621-.36-.819-.24-.204-.561-.306-.963-.306h-1.422v2.214h1.449z" class="B"/><g class="C"><circle cx="444.5" cy="423" r="3.5"/><circle cx="453.5" cy="423" r="3.5"/><circle cx="462.5" cy="423" r="3.5"/></g><path d="M399.682 441.063c-.414 0-.786-.072-1.116-.216-.324-.15-.579-.354-.765-.612a1.59 1.59 0 0 1-.288-.909h.873c.03.294.15.543.36.747.216.198.528.297.936.297.39 0 .696-.096.918-.288.228-.198.342-.45.342-.756 0-.24-.066-.435-.198-.585s-.297-.264-.495-.342-.465-.162-.801-.252c-.414-.108-.747-.216-.999-.324a1.66 1.66 0 0 1-.639-.504c-.174-.234-.261-.546-.261-.936 0-.342.087-.645.261-.909s.417-.468.729-.612c.318-.144.681-.216 1.089-.216.588 0 1.068.147 1.44.441.378.294.591.684.639 1.17h-.9c-.03-.24-.156-.45-.378-.63-.222-.186-.516-.279-.882-.279-.342 0-.621.09-.837.27-.216.174-.324.42-.324.738 0 .228.063.414.189.558.132.144.291.255.477.333.192.072.459.156.801.252a7.01 7.01 0 0 1 .999.342c.252.108.468.279.648.513.18.228.27.54.27.936a1.65 1.65 0 0 1-.243.864c-.162.27-.402.489-.72.657s-.693.252-1.125.252zm8.324 1.125l-1.251-1.251a3.52 3.52 0 0 1-.936.126c-.582 0-1.113-.135-1.593-.405-.48-.276-.861-.657-1.143-1.143-.276-.492-.414-1.044-.414-1.656s.138-1.161.414-1.647c.282-.492.663-.873 1.143-1.143.48-.276 1.011-.414 1.593-.414.588 0 1.122.138 1.602.414a2.94 2.94 0 0 1 1.134 1.134c.276.486.414 1.038.414 1.656 0 .6-.132 1.14-.396 1.62s-.627.858-1.089 1.134l1.584 1.575h-1.062zm-4.5-4.329c0 .498.099.936.297 1.314.204.378.48.669.828.873.354.204.75.306 1.188.306s.831-.102 1.179-.306c.354-.204.63-.495.828-.873.204-.378.306-.816.306-1.314 0-.504-.102-.942-.306-1.314-.198-.378-.471-.669-.819-.873s-.744-.306-1.188-.306-.84.102-1.188.306-.624.495-.828.873c-.198.372-.297.81-.297 1.314zm7.381 2.475h2.196V441h-3.015v-6.273h.819v5.607zm3.489-5.067a.54.54 0 0 1-.558-.558.54.54 0 0 1 .558-.558.5.5 0 0 1 .378.162.54.54 0 0 1 .162.396.54.54 0 0 1-.162.396.5.5 0 0 1-.378.162zm.396.801V441h-.819v-4.932h.819zm2.395.675v2.907c0 .24.051.411.153.513.102.096.279.144.531.144h.603V441h-.738c-.456 0-.798-.105-1.026-.315s-.342-.555-.342-1.035v-2.907h-.639v-.675h.639v-1.242h.819v1.242h1.287v.675h-1.287zm6.779 1.602a4.82 4.82 0 0 1-.027.495h-3.942c.03.486.195.867.495 1.143.306.27.675.405 1.107.405.354 0 .648-.081.882-.243.24-.168.408-.39.504-.666h.882a2.14 2.14 0 0 1-.792 1.161c-.396.294-.888.441-1.476.441-.468 0-.888-.105-1.26-.315-.366-.21-.654-.507-.864-.891-.21-.39-.315-.84-.315-1.35s.102-.957.306-1.341.489-.678.855-.882c.372-.21.798-.315 1.278-.315.468 0 .882.102 1.242.306a2.08 2.08 0 0 1 .828.846c.198.354.297.756.297 1.206zm-.846-.171c0-.312-.069-.579-.207-.801-.138-.228-.327-.399-.567-.513a1.69 1.69 0 0 0-.783-.18c-.414 0-.768.132-1.062.396-.288.264-.453.63-.495 1.098h3.114z" class="B"/><circle cx="430.5" cy="438" r="3.5" class="C"/><path d="M608.401 60.605h-2.736L605.161 62h-.864l2.268-6.237h.945L609.769 62h-.864l-.504-1.395zm-.234-.666l-1.134-3.168-1.134 3.168h2.268zm5.155-1.071L615.248 62h-.927l-1.503-2.448L611.387 62h-.909l1.917-3.132-1.926-3.141h.918l1.512 2.457 1.44-2.457h.918l-1.935 3.141zm6.571-3.141v.666h-2.727v2.115h2.214v.666h-2.214V62h-.819v-6.273h3.546zM624.185 62l-1.494-2.565h-.99V62h-.819v-6.273h2.025c.474 0 .873.081 1.197.243.33.162.576.381.738.657s.243.591.243.945a1.83 1.83 0 0 1-.378 1.143c-.246.33-.618.549-1.116.657L625.166 62h-.981zm-2.484-3.222h1.206c.444 0 .777-.108.999-.324.222-.222.333-.516.333-.882 0-.372-.111-.66-.333-.864-.216-.204-.549-.306-.999-.306h-1.206v2.376z" class="B"/><g class="C"><circle cx="631.5" cy="59" r="3.5"/><circle cx="640.5" cy="59" r="3.5"/><circle cx="649.5" cy="59" r="3.5"/><circle cx="658.5" cy="59" r="3.5"/></g><path d="M605.512 70.727V77h-.819v-6.273h.819zm3.961 3.141L611.399 77h-.927l-1.503-2.448L607.538 77h-.909l1.917-3.132-1.926-3.141h.918l1.512 2.457 1.44-2.457h.918l-1.935 3.141zm6.571-3.141v.666h-2.727v2.115h2.214v.666h-2.214V77h-.819v-6.273h3.546zM620.336 77l-1.494-2.565h-.99V77h-.819v-6.273h2.025c.474 0 .873.081 1.197.243.33.162.576.381.738.657s.243.591.243.945a1.83 1.83 0 0 1-.378 1.143c-.246.33-.618.549-1.116.657L621.317 77h-.981zm-2.484-3.222h1.206c.444 0 .777-.108.999-.324.222-.222.333-.516.333-.882 0-.372-.111-.66-.333-.864-.216-.204-.549-.306-.999-.306h-1.206v2.376z" class="B"/><circle cx="627.5" cy="74" r="3.5" class="C"/><path d="M607.996 92l-1.494-2.565h-.99V92h-.819v-6.273h2.025c.474 0 .873.081 1.197.243.33.162.576.381.738.657s.243.591.243.945a1.83 1.83 0 0 1-.378 1.143c-.246.33-.618.549-1.116.657L608.977 92h-.981zm-2.484-3.222h1.206c.444 0 .777-.108.999-.324.222-.222.333-.516.333-.882 0-.372-.111-.66-.333-.864-.216-.204-.549-.306-.999-.306h-1.206v2.376zm9.157.567a4.82 4.82 0 0 1-.027.495H610.7c.03.486.195.867.495 1.143.306.27.675.405 1.107.405.354 0 .648-.081.882-.243.24-.168.408-.39.504-.666h.882a2.14 2.14 0 0 1-.792 1.161c-.396.294-.888.441-1.476.441-.468 0-.888-.105-1.26-.315-.366-.21-.654-.507-.864-.891-.21-.39-.315-.84-.315-1.35s.102-.957.306-1.341.489-.678.855-.882c.372-.21.798-.315 1.278-.315.468 0 .882.102 1.242.306a2.08 2.08 0 0 1 .828.846c.198.354.297.756.297 1.206zm-.846-.171c0-.312-.069-.579-.207-.801-.138-.228-.327-.399-.567-.513a1.69 1.69 0 0 0-.783-.18c-.414 0-.768.132-1.062.396-.288.264-.453.63-.495 1.098h3.114zm1.621.351c0-.51.102-.954.306-1.332.204-.384.486-.681.846-.891.366-.21.783-.315 1.251-.315.606 0 1.104.147 1.494.441.396.294.657.702.783 1.224h-.882a1.26 1.26 0 0 0-.495-.711c-.24-.174-.54-.261-.9-.261-.468 0-.846.162-1.134.486-.288.318-.432.771-.432 1.359 0 .594.144 1.053.432 1.377s.666.486 1.134.486c.36 0 .66-.084.9-.252s.405-.408.495-.72h.882a2.19 2.19 0 0 1-.792 1.215c-.396.3-.891.45-1.485.45-.468 0-.885-.105-1.251-.315-.36-.21-.642-.507-.846-.891s-.306-.834-.306-1.35zm7.923 2.556a2.55 2.55 0 0 1-1.26-.315 2.29 2.29 0 0 1-.882-.891c-.21-.39-.315-.84-.315-1.35 0-.504.108-.948.324-1.332.222-.39.522-.687.9-.891.378-.21.801-.315 1.269-.315s.891.105 1.269.315a2.21 2.21 0 0 1 .891.882c.222.384.333.831.333 1.341s-.114.96-.342 1.35c-.222.384-.525.681-.909.891a2.62 2.62 0 0 1-1.278.315zm0-.72a1.73 1.73 0 0 0 .828-.207c.258-.138.465-.345.621-.621.162-.276.243-.612.243-1.008s-.078-.732-.234-1.008-.36-.48-.612-.612c-.252-.138-.525-.207-.819-.207-.3 0-.576.069-.828.207-.246.132-.444.336-.594.612s-.225.612-.225 1.008c0 .402.072.741.216 1.017.15.276.348.483.594.621.246.132.516.198.81.198zm4.425-3.492a1.58 1.58 0 0 1 .612-.657c.27-.156.597-.234.981-.234v.846h-.216c-.918 0-1.377.498-1.377 1.494V92h-.819v-4.932h.819v.801zm2.233 1.647c0-.504.102-.945.306-1.323.204-.384.483-.681.837-.891a2.35 2.35 0 0 1 1.206-.315 2.2 2.2 0 0 1 1.071.27c.33.174.582.405.756.693v-2.61h.828V92h-.828v-.927c-.162.294-.402.537-.72.729a2.17 2.17 0 0 1-1.116.279c-.438 0-.837-.108-1.197-.324-.354-.216-.633-.519-.837-.909s-.306-.834-.306-1.332zm4.176.009c0-.372-.075-.696-.225-.972a1.55 1.55 0 0 0-.612-.63c-.252-.15-.531-.225-.837-.225s-.585.072-.837.216-.453.354-.603.63-.225.6-.225.972c0 .378.075.708.225.99a1.63 1.63 0 0 0 .603.639c.252.144.531.216.837.216s.585-.072.837-.216a1.61 1.61 0 0 0 .612-.639c.15-.282.225-.609.225-.981zm3.958 2.556c-.378 0-.717-.063-1.017-.189-.3-.132-.537-.312-.711-.54a1.46 1.46 0 0 1-.288-.801h.846c.024.246.138.447.342.603.21.156.483.234.819.234.312 0 .558-.069.738-.207s.27-.312.27-.522c0-.216-.096-.375-.288-.477-.192-.108-.489-.213-.891-.315-.366-.096-.666-.192-.9-.288a1.71 1.71 0 0 1-.594-.441c-.162-.198-.243-.456-.243-.774 0-.252.075-.483.225-.693s.363-.375.639-.495c.276-.126.591-.189.945-.189.546 0 .987.138 1.323.414s.516.654.54 1.134h-.819a.84.84 0 0 0-.315-.621c-.186-.156-.438-.234-.756-.234-.294 0-.528.063-.702.189s-.261.291-.261.495c0 .162.051.297.153.405.108.102.24.186.396.252.162.06.384.129.666.207a6.56 6.56 0 0 1 .864.288c.222.09.411.228.567.414.162.186.246.429.252.729a1.25 1.25 0 0 1-.225.729c-.15.216-.363.387-.639.513-.27.12-.582.18-.936.18z" class="B"/><circle cx="646.5" cy="89" r="3.5" class="C"/><path d="M606.646 100.727c.684 0 1.275.129 1.773.387.504.252.888.615 1.152 1.089.27.474.405 1.032.405 1.674s-.135 1.2-.405 1.674c-.264.468-.648.828-1.152 1.08-.498.246-1.089.369-1.773.369h-1.953v-6.273h1.953zm0 5.598c.81 0 1.428-.213 1.854-.639.426-.432.639-1.035.639-1.809 0-.78-.216-1.389-.648-1.827-.426-.438-1.041-.657-1.845-.657h-1.134v4.932h1.134zm9.342.675h-.819l-3.294-4.995V107h-.819v-6.282h.819l3.294 4.986v-4.986h.819V107zm3.385.063c-.414 0-.786-.072-1.116-.216-.324-.15-.579-.354-.765-.612a1.59 1.59 0 0 1-.288-.909h.873c.03.294.15.543.36.747.216.198.528.297.936.297.39 0 .696-.096.918-.288.228-.198.342-.45.342-.756 0-.24-.066-.435-.198-.585s-.297-.264-.495-.342-.465-.162-.801-.252c-.414-.108-.747-.216-.999-.324a1.66 1.66 0 0 1-.639-.504c-.174-.234-.261-.546-.261-.936 0-.342.087-.645.261-.909s.417-.468.729-.612c.318-.144.681-.216 1.089-.216.588 0 1.068.147 1.44.441.378.294.591.684.639 1.17h-.9c-.03-.24-.156-.45-.378-.63-.222-.186-.516-.279-.882-.279-.342 0-.621.09-.837.27-.216.174-.324.42-.324.738 0 .228.063.414.189.558.132.144.291.255.477.333.192.072.459.156.801.252a7.01 7.01 0 0 1 .999.342c.252.108.468.279.648.513.18.228.27.54.27.936a1.65 1.65 0 0 1-.243.864c-.162.27-.402.489-.72.657s-.693.252-1.125.252zm5.283 0c-.414 0-.786-.072-1.116-.216-.324-.15-.579-.354-.765-.612a1.59 1.59 0 0 1-.288-.909h.873c.03.294.15.543.36.747.216.198.528.297.936.297.39 0 .696-.096.918-.288.228-.198.342-.45.342-.756 0-.24-.066-.435-.198-.585s-.297-.264-.495-.342-.465-.162-.801-.252c-.414-.108-.747-.216-.999-.324a1.66 1.66 0 0 1-.639-.504c-.174-.234-.261-.546-.261-.936 0-.342.087-.645.261-.909s.417-.468.729-.612c.318-.144.681-.216 1.089-.216.588 0 1.068.147 1.44.441.378.294.591.684.639 1.17h-.9c-.03-.24-.156-.45-.378-.63-.222-.186-.516-.279-.882-.279-.342 0-.621.09-.837.27-.216.174-.324.42-.324.738 0 .228.063.414.189.558.132.144.291.255.477.333.192.072.459.156.801.252a7.01 7.01 0 0 1 .999.342c.252.108.468.279.648.513.18.228.27.54.27.936a1.65 1.65 0 0 1-.243.864c-.162.27-.402.489-.72.657s-.693.252-1.125.252zm4.112-5.67v2.097h2.286v.675h-2.286v2.16h2.556V107h-3.375v-6.282h3.375v.675h-2.556zm3.489 2.466c0-.612.138-1.161.414-1.647a3.01 3.01 0 0 1 1.125-1.152c.48-.276 1.011-.414 1.593-.414.684 0 1.281.165 1.791.495s.882.798 1.116 1.404h-.981a1.96 1.96 0 0 0-.756-.873c-.324-.204-.714-.306-1.17-.306-.438 0-.831.102-1.179.306s-.621.495-.819.873c-.198.372-.297.81-.297 1.314 0 .498.099.936.297 1.314.198.372.471.66.819.864s.741.306 1.179.306c.456 0 .846-.099 1.17-.297a1.96 1.96 0 0 0 .756-.873h.981a2.84 2.84 0 0 1-1.116 1.395c-.51.324-1.107.486-1.791.486-.582 0-1.113-.135-1.593-.405-.474-.276-.849-.657-1.125-1.143s-.414-1.035-.414-1.647z" class="B"/><g class="C"><circle cx="644.5" cy="104" r="3.5"/><circle cx="653.5" cy="104" r="3.5"/></g><path d="M486.646 78.727c.684 0 1.275.129 1.773.387.504.252.888.615 1.152 1.089.27.474.405 1.032.405 1.674s-.135 1.2-.405 1.674c-.264.468-.648.828-1.152 1.08-.498.246-1.089.369-1.773.369h-1.953v-6.273h1.953zm0 5.598c.81 0 1.428-.213 1.854-.639.426-.432.639-1.035.639-1.809 0-.78-.216-1.389-.648-1.827-.426-.438-1.041-.657-1.845-.657h-1.134v4.932h1.134zm9.342.675h-.819l-3.294-4.995V85h-.819v-6.282h.819l3.294 4.986v-4.986h.819V85zm3.385.063c-.414 0-.786-.072-1.116-.216-.324-.15-.579-.354-.765-.612a1.59 1.59 0 0 1-.288-.909h.873c.03.294.15.543.36.747.216.198.528.297.936.297.39 0 .696-.096.918-.288.228-.198.342-.45.342-.756 0-.24-.066-.435-.198-.585s-.297-.264-.495-.342-.465-.162-.801-.252c-.414-.108-.747-.216-.999-.324a1.66 1.66 0 0 1-.639-.504c-.174-.234-.261-.546-.261-.936 0-.342.087-.645.261-.909s.417-.468.729-.612c.318-.144.681-.216 1.089-.216.588 0 1.068.147 1.44.441.378.294.591.684.639 1.17h-.9c-.03-.24-.156-.45-.378-.63-.222-.186-.516-.279-.882-.279-.342 0-.621.09-.837.27-.216.174-.324.42-.324.738 0 .228.063.414.189.558.132.144.291.255.477.333.192.072.459.156.801.252a7.01 7.01 0 0 1 .999.342c.252.108.468.279.648.513.18.228.27.54.27.936a1.65 1.65 0 0 1-.243.864c-.162.27-.402.489-.72.657s-.693.252-1.125.252z" class="B"/><g class="C"><circle cx="507.5" cy="82" r="3.5"/><circle cx="516.5" cy="82" r="3.5"/><circle cx="525.5" cy="82" r="3.5"/><circle cx="534.5" cy="82" r="3.5"/></g><path d="M485.512 93.727V100h-.819v-6.273h.819zm5.59 1.836a1.74 1.74 0 0 1-.54 1.305c-.354.342-.897.513-1.629.513h-1.206V100h-.819v-6.273h2.025c.708 0 1.245.171 1.611.513.372.342.558.783.558 1.323zm-2.169 1.143c.456 0 .792-.099 1.008-.297s.324-.48.324-.846c0-.774-.444-1.161-1.332-1.161h-1.206v2.304h1.206zm5.023 2.538l1.53-4.176h.873L494.424 100h-.954l-1.935-4.932h.882l1.539 4.176zm6.701-4.203c-.132-.666-.543-.999-1.233-.999-.534 0-.933.207-1.197.621-.264.408-.393 1.083-.387 2.025.138-.312.366-.555.684-.729.324-.18.684-.27 1.08-.27.618 0 1.11.192 1.476.576.372.384.558.915.558 1.593 0 .408-.081.774-.243 1.098a1.79 1.79 0 0 1-.72.774c-.318.192-.705.288-1.161.288-.618 0-1.101-.138-1.449-.414s-.591-.657-.729-1.143-.207-1.086-.207-1.8c0-2.202.768-3.303 2.304-3.303.588 0 1.05.159 1.386.477a1.93 1.93 0 0 1 .594 1.206h-.756zm-1.224 1.341a1.68 1.68 0 0 0-.729.162 1.3 1.3 0 0 0-.558.477c-.138.21-.207.468-.207.774 0 .456.132.828.396 1.116.264.282.642.423 1.134.423.42 0 .753-.129.999-.387.252-.264.378-.618.378-1.062 0-.468-.12-.834-.36-1.098-.24-.27-.591-.405-1.053-.405z" class="B"/><g class="C"><circle cx="508.5" cy="97" r="3.5"/><circle cx="517.5" cy="97" r="3.5"/></g><path d="M489.625 115h-.819l-3.294-4.995V115h-.819v-6.282h.819l3.294 4.986v-4.986h.819V115zm5.104-1.395h-2.736l-.504 1.395h-.864l2.268-6.237h.945l2.259 6.237h-.864l-.504-1.395zm-.234-.666l-1.134-3.168-1.134 3.168h2.268zm6.452-4.212v.666h-1.71V115h-.819v-5.607h-1.719v-.666h4.248z" class="B"/><circle cx="507.5" cy="112" r="3.5" class="C"/><path d="M488.401 128.605h-2.736l-.504 1.395h-.864l2.268-6.237h.945l2.259 6.237h-.864l-.504-1.395zm-.234-.666l-1.134-3.168-1.134 3.168h2.268zm4.579 2.124c-.414 0-.786-.072-1.116-.216-.324-.15-.579-.354-.765-.612a1.59 1.59 0 0 1-.288-.909h.873c.03.294.15.543.36.747.216.198.528.297.936.297.39 0 .696-.096.918-.288.228-.198.342-.45.342-.756 0-.24-.066-.435-.198-.585s-.297-.264-.495-.342-.465-.162-.801-.252c-.414-.108-.747-.216-.999-.324a1.66 1.66 0 0 1-.639-.504c-.174-.234-.261-.546-.261-.936 0-.342.087-.645.261-.909s.417-.468.729-.612c.318-.144.681-.216 1.089-.216.588 0 1.068.147 1.44.441.378.294.591.684.639 1.17h-.9c-.03-.24-.156-.45-.378-.63-.222-.186-.516-.279-.882-.279-.342 0-.621.09-.837.27-.216.174-.324.42-.324.738 0 .228.063.414.189.558.132.144.291.255.477.333.192.072.459.156.801.252a7.01 7.01 0 0 1 .999.342c.252.108.468.279.648.513.18.228.27.54.27.936a1.65 1.65 0 0 1-.243.864c-.162.27-.402.489-.72.657s-.693.252-1.125.252z" class="B"/><g class="C"><circle cx="501.5" cy="127" r="3.5"/><circle cx="510.5" cy="127" r="3.5"/><circle cx="519.5" cy="127" r="3.5"/><circle cx="528.5" cy="127" r="3.5"/></g><path d="M488.554 138.727v.666h-1.71V145h-.819v-5.607h-1.719v-.666h4.248zm.702 3.132c0-.612.138-1.161.414-1.647a3.01 3.01 0 0 1 1.125-1.152c.48-.276 1.011-.414 1.593-.414.684 0 1.281.165 1.791.495s.882.798 1.116 1.404h-.981a1.96 1.96 0 0 0-.756-.873c-.324-.204-.714-.306-1.17-.306-.438 0-.831.102-1.179.306s-.621.495-.819.873c-.198.372-.297.81-.297 1.314 0 .498.099.936.297 1.314.198.372.471.66.819.864s.741.306 1.179.306c.456 0 .846-.099 1.17-.297a1.96 1.96 0 0 0 .756-.873h.981a2.84 2.84 0 0 1-1.116 1.395c-.51.324-1.107.486-1.791.486-.582 0-1.113-.135-1.593-.405-.474-.276-.849-.657-1.125-1.143s-.414-1.035-.414-1.647zm11.452-1.296a1.74 1.74 0 0 1-.54 1.305c-.354.342-.897.513-1.629.513h-1.206V145h-.819v-6.273h2.025c.708 0 1.245.171 1.611.513.372.342.558.783.558 1.323zm-2.169 1.143c.456 0 .792-.099 1.008-.297s.324-.48.324-.846c0-.774-.444-1.161-1.332-1.161h-1.206v2.304h1.206zm6.247-5.184l-2.466 10.008h-.81l2.457-10.008h.819zm2.021 2.205v3.969c0 .558.135.972.405 1.242.276.27.657.405 1.143.405.48 0 .855-.135 1.125-.405.276-.27.414-.684.414-1.242v-3.969h.819v3.96c0 .522-.105.963-.315 1.323a1.98 1.98 0 0 1-.855.792c-.354.174-.753.261-1.197.261s-.846-.087-1.206-.261a1.99 1.99 0 0 1-.846-.792c-.204-.36-.306-.801-.306-1.323v-3.96h.819zm7.226 0c.684 0 1.275.129 1.773.387.504.252.888.615 1.152 1.089.27.474.405 1.032.405 1.674s-.135 1.2-.405 1.674c-.264.468-.648.828-1.152 1.08-.498.246-1.089.369-1.773.369h-1.953v-6.273h1.953zm0 5.598c.81 0 1.428-.213 1.854-.639.426-.432.639-1.035.639-1.809 0-.78-.216-1.389-.648-1.827-.426-.438-1.041-.657-1.845-.657h-1.134v4.932h1.134zm8.604-3.762a1.74 1.74 0 0 1-.54 1.305c-.354.342-.897.513-1.629.513h-1.206V145h-.819v-6.273h2.025c.708 0 1.245.171 1.611.513.372.342.558.783.558 1.323zm-2.169 1.143c.456 0 .792-.099 1.008-.297s.324-.48.324-.846c0-.774-.444-1.161-1.332-1.161h-1.206v2.304h1.206z" class="B"/><g class="C"><circle cx="528.5" cy="142" r="3.5"/><circle cx="537.5" cy="142" r="3.5"/></g><path d="M489.724 161.188l-1.251-1.251a3.52 3.52 0 0 1-.936.126c-.582 0-1.113-.135-1.593-.405-.48-.276-.861-.657-1.143-1.143-.276-.492-.414-1.044-.414-1.656s.138-1.161.414-1.647c.282-.492.663-.873 1.143-1.143.48-.276 1.011-.414 1.593-.414.588 0 1.122.138 1.602.414a2.94 2.94 0 0 1 1.134 1.134c.276.486.414 1.038.414 1.656 0 .6-.132 1.14-.396 1.62s-.627.858-1.089 1.134l1.584 1.575h-1.062zm-4.5-4.329c0 .498.099.936.297 1.314.204.378.48.669.828.873.354.204.75.306 1.188.306s.831-.102 1.179-.306c.354-.204.63-.495.828-.873.204-.378.306-.816.306-1.314 0-.504-.102-.942-.306-1.314-.198-.378-.471-.669-.819-.873s-.744-.306-1.188-.306-.84.102-1.188.306-.624.495-.828.873c-.198.372-.297.81-.297 1.314zm10.936-1.791V160h-.819v-.729a1.62 1.62 0 0 1-.657.594c-.276.138-.582.207-.918.207-.384 0-.729-.078-1.035-.234a1.79 1.79 0 0 1-.729-.72c-.174-.318-.261-.705-.261-1.161v-2.889h.81v2.781c0 .486.123.861.369 1.125.246.258.582.387 1.008.387.438 0 .783-.135 1.035-.405s.378-.663.378-1.179v-2.709h.819zm1.806-.801a.54.54 0 0 1-.558-.558.54.54 0 0 1 .558-.558.5.5 0 0 1 .378.162.54.54 0 0 1 .162.396.54.54 0 0 1-.162.396.5.5 0 0 1-.378.162zm.396.801V160h-.819v-4.932h.819zm1.089 2.457c0-.51.102-.954.306-1.332.204-.384.486-.681.846-.891.366-.21.783-.315 1.251-.315.606 0 1.104.147 1.494.441.396.294.657.702.783 1.224h-.882a1.26 1.26 0 0 0-.495-.711c-.24-.174-.54-.261-.9-.261-.468 0-.846.162-1.134.486-.288.318-.432.771-.432 1.359 0 .594.144 1.053.432 1.377s.666.486 1.134.486c.36 0 .66-.084.9-.252s.405-.408.495-.72h.882a2.19 2.19 0 0 1-.792 1.215c-.396.3-.891.45-1.485.45-.468 0-.885-.105-1.251-.315-.36-.21-.642-.507-.846-.891s-.306-.834-.306-1.35z" class="B"/><circle cx="510.5" cy="157" r="3.5" class="C"/><path d="M494.095 184l-2.583-2.862V184h-.819v-6.273h.819v2.907l2.592-2.907h1.035l-2.844 3.141 2.871 3.132h-1.071zm4.389-5.022c.6 0 1.086.183 1.458.549.372.36.558.882.558 1.566V184h-.81v-2.79c0-.492-.123-.867-.369-1.125-.246-.264-.582-.396-1.008-.396-.432 0-.777.135-1.035.405-.252.27-.378.663-.378 1.179V184h-.819v-4.932h.819v.702c.162-.252.381-.447.657-.585a2.08 2.08 0 0 1 .927-.207zm5.505 5.103a2.55 2.55 0 0 1-1.26-.315 2.29 2.29 0 0 1-.882-.891c-.21-.39-.315-.84-.315-1.35 0-.504.108-.948.324-1.332.222-.39.522-.687.9-.891.378-.21.801-.315 1.269-.315s.891.105 1.269.315a2.21 2.21 0 0 1 .891.882c.222.384.333.831.333 1.341s-.114.96-.342 1.35c-.222.384-.525.681-.909.891a2.62 2.62 0 0 1-1.278.315zm0-.72a1.73 1.73 0 0 0 .828-.207c.258-.138.465-.345.621-.621.162-.276.243-.612.243-1.008s-.078-.732-.234-1.008-.36-.48-.612-.612c-.252-.138-.525-.207-.819-.207-.3 0-.576.069-.828.207-.246.132-.444.336-.594.612s-.225.612-.225 1.008c0 .402.072.741.216 1.017.15.276.348.483.594.621.246.132.516.198.81.198zm4.604-3.618v2.907c0 .24.051.411.153.513.102.096.279.144.531.144h.603V184h-.738c-.456 0-.798-.105-1.026-.315s-.342-.555-.342-1.035v-2.907h-.639v-.675h.639v-1.242h.819v1.242h1.287v.675h-1.287z" class="B"/><g class="C"><circle cx="516.5" cy="181" r="3.5"/><circle cx="525.5" cy="181" r="3.5"/><circle cx="534.5" cy="181" r="3.5"/><circle cx="543.5" cy="181" r="3.5"/></g><path d="M495.625 199h-.819l-3.294-4.995V199h-.819v-6.282h.819l3.294 4.986v-4.986h.819V199zm3.43-5.013a2.17 2.17 0 0 1 1.116.279c.324.186.564.42.72.702v-.9h.828v5.04c0 .45-.096.849-.288 1.197-.192.354-.468.63-.828.828-.354.198-.768.297-1.242.297-.648 0-1.188-.153-1.62-.459s-.687-.723-.765-1.251h.81a1.27 1.27 0 0 0 .558.72c.282.186.621.279 1.017.279.45 0 .816-.141 1.098-.423.288-.282.432-.678.432-1.188v-1.035a1.97 1.97 0 0 1-.72.72c-.318.192-.69.288-1.116.288-.438 0-.837-.108-1.197-.324-.354-.216-.633-.519-.837-.909s-.306-.834-.306-1.332c0-.504.102-.945.306-1.323.204-.384.483-.681.837-.891.36-.21.759-.315 1.197-.315zm1.836 2.538c0-.372-.075-.696-.225-.972a1.55 1.55 0 0 0-.612-.63c-.252-.15-.531-.225-.837-.225s-.585.072-.837.216-.453.354-.603.63-.225.6-.225.972c0 .378.075.708.225.99a1.63 1.63 0 0 0 .603.639c.252.144.531.216.837.216s.585-.072.837-.216a1.61 1.61 0 0 0 .612-.639c.15-.282.225-.609.225-.981zm2.635-3.258a.54.54 0 0 1-.558-.558.54.54 0 0 1 .558-.558.5.5 0 0 1 .378.162.54.54 0 0 1 .162.396.54.54 0 0 1-.162.396.5.5 0 0 1-.378.162zm.396.801V199h-.819v-4.932h.819zm3.799-.09c.6 0 1.086.183 1.458.549.372.36.558.882.558 1.566V199h-.81v-2.79c0-.492-.123-.867-.369-1.125-.246-.264-.582-.396-1.008-.396-.432 0-.777.135-1.035.405-.252.27-.378.663-.378 1.179V199h-.819v-4.932h.819v.702c.162-.252.381-.447.657-.585a2.08 2.08 0 0 1 .927-.207zm5.928 5.022l-1.17-1.836-1.125 1.836h-.855l1.593-2.448-1.593-2.484h.927l1.17 1.827 1.116-1.827h.855l-1.584 2.439 1.593 2.493h-.927z" class="B"/><g class="C"><circle cx="520.5" cy="196" r="3.5"/><circle cx="529.5" cy="196" r="3.5"/></g><path d="M491.494 207.727v3.969c0 .558.135.972.405 1.242.276.27.657.405 1.143.405.48 0 .855-.135 1.125-.405.276-.27.414-.684.414-1.242v-3.969h.819v3.96c0 .522-.105.963-.315 1.323a1.98 1.98 0 0 1-.855.792c-.354.174-.753.261-1.197.261s-.846-.087-1.206-.261a1.99 1.99 0 0 1-.846-.792c-.204-.36-.306-.801-.306-1.323v-3.96h.819zm7.018 6.354c-.378 0-.717-.063-1.017-.189-.3-.132-.537-.312-.711-.54a1.46 1.46 0 0 1-.288-.801h.846c.024.246.138.447.342.603.21.156.483.234.819.234.312 0 .558-.069.738-.207s.27-.312.27-.522c0-.216-.096-.375-.288-.477-.192-.108-.489-.213-.891-.315-.366-.096-.666-.192-.9-.288a1.71 1.71 0 0 1-.594-.441c-.162-.198-.243-.456-.243-.774 0-.252.075-.483.225-.693s.363-.375.639-.495c.276-.126.591-.189.945-.189.546 0 .987.138 1.323.414s.516.654.54 1.134h-.819a.84.84 0 0 0-.315-.621c-.186-.156-.438-.234-.756-.234-.294 0-.528.063-.702.189s-.261.291-.261.495c0 .162.051.297.153.405.108.102.24.186.396.252.162.06.384.129.666.207a6.56 6.56 0 0 1 .864.288c.222.09.411.228.567.414.162.186.246.429.252.729a1.25 1.25 0 0 1-.225.729c-.15.216-.363.387-.639.513-.27.12-.582.18-.936.18zm2.65-2.565c0-.504.102-.945.306-1.323.204-.384.483-.681.837-.891.36-.21.759-.315 1.197-.315.432 0 .807.093 1.125.279s.555.42.711.702v-.9h.828V214h-.828v-.918c-.162.288-.405.528-.729.72a2.17 2.17 0 0 1-1.116.279c-.438 0-.834-.108-1.188-.324s-.633-.519-.837-.909-.306-.834-.306-1.332zm4.176.009c0-.372-.075-.696-.225-.972a1.55 1.55 0 0 0-.612-.63c-.252-.15-.531-.225-.837-.225s-.585.072-.837.216-.453.354-.603.63-.225.6-.225.972c0 .378.075.708.225.99a1.63 1.63 0 0 0 .603.639c.252.144.531.216.837.216s.585-.072.837-.216a1.61 1.61 0 0 0 .612-.639c.15-.282.225-.609.225-.981zm4.246-2.538a2.17 2.17 0 0 1 1.116.279c.324.186.564.42.72.702v-.9h.828v5.04c0 .45-.096.849-.288 1.197-.192.354-.468.63-.828.828-.354.198-.768.297-1.242.297-.648 0-1.188-.153-1.62-.459s-.687-.723-.765-1.251h.81a1.27 1.27 0 0 0 .558.72c.282.186.621.279 1.017.279.45 0 .816-.141 1.098-.423.288-.282.432-.678.432-1.188v-1.035a1.97 1.97 0 0 1-.72.72c-.318.192-.69.288-1.116.288-.438 0-.837-.108-1.197-.324-.354-.216-.633-.519-.837-.909s-.306-.834-.306-1.332c0-.504.102-.945.306-1.323.204-.384.483-.681.837-.891.36-.21.759-.315 1.197-.315zm1.836 2.538c0-.372-.075-.696-.225-.972a1.55 1.55 0 0 0-.612-.63c-.252-.15-.531-.225-.837-.225s-.585.072-.837.216-.453.354-.603.63-.225.6-.225.972c0 .378.075.708.225.99a1.63 1.63 0 0 0 .603.639c.252.144.531.216.837.216s.585-.072.837-.216a1.61 1.61 0 0 0 .612-.639c.15-.282.225-.609.225-.981zm6.712-.18a4.82 4.82 0 0 1-.027.495h-3.942c.03.486.195.867.495 1.143.306.27.675.405 1.107.405.354 0 .648-.081.882-.243.24-.168.408-.39.504-.666h.882a2.14 2.14 0 0 1-.792 1.161c-.396.294-.888.441-1.476.441-.468 0-.888-.105-1.26-.315-.366-.21-.654-.507-.864-.891-.21-.39-.315-.84-.315-1.35s.102-.957.306-1.341.489-.678.855-.882c.372-.21.798-.315 1.278-.315.468 0 .882.102 1.242.306a2.08 2.08 0 0 1 .828.846c.198.354.297.756.297 1.206zm-.846-.171c0-.312-.069-.579-.207-.801-.138-.228-.327-.399-.567-.513a1.69 1.69 0 0 0-.783-.18c-.414 0-.768.132-1.062.396-.288.264-.453.63-.495 1.098h3.114zm6.478 2.907a2.55 2.55 0 0 1-1.26-.315 2.29 2.29 0 0 1-.882-.891c-.21-.39-.315-.84-.315-1.35 0-.504.108-.948.324-1.332.222-.39.522-.687.9-.891.378-.21.801-.315 1.269-.315s.891.105 1.269.315a2.21 2.21 0 0 1 .891.882c.222.384.333.831.333 1.341s-.114.96-.342 1.35c-.222.384-.525.681-.909.891a2.62 2.62 0 0 1-1.278.315zm0-.72a1.73 1.73 0 0 0 .828-.207c.258-.138.465-.345.621-.621.162-.276.243-.612.243-1.008s-.078-.732-.234-1.008-.36-.48-.612-.612c-.252-.138-.525-.207-.819-.207-.3 0-.576.069-.828.207-.246.132-.444.336-.594.612s-.225.612-.225 1.008c0 .402.072.741.216 1.017.15.276.348.483.594.621.246.132.516.198.81.198zm5.613-3.618h-1.035V214h-.819v-4.257h-.639v-.675h.639v-.351c0-.552.141-.954.423-1.206.288-.258.747-.387 1.377-.387v.684c-.36 0-.615.072-.765.216-.144.138-.216.369-.216.693v.351h1.035v.675zm3.777-1.476a.54.54 0 0 1-.558-.558.54.54 0 0 1 .558-.558.5.5 0 0 1 .378.162.54.54 0 0 1 .162.396.54.54 0 0 1-.162.396.5.5 0 0 1-.378.162zm.396.801V214h-.819v-4.932h.819zm2.215.909c.162-.282.402-.516.72-.702.324-.192.699-.288 1.125-.288.438 0 .834.105 1.188.315.36.21.642.507.846.891.204.378.306.819.306 1.323 0 .498-.102.942-.306 1.332a2.25 2.25 0 0 1-.846.909c-.354.216-.75.324-1.188.324-.42 0-.792-.093-1.116-.279-.318-.192-.561-.429-.729-.711v3.249h-.819v-7.272h.819v.909zm3.348 1.539c0-.372-.075-.696-.225-.972a1.55 1.55 0 0 0-.612-.63c-.252-.144-.531-.216-.837-.216-.3 0-.579.075-.837.225-.252.144-.456.357-.612.639-.15.276-.225.597-.225.963 0 .372.075.699.225.981.156.276.36.489.612.639a1.69 1.69 0 0 0 .837.216c.306 0 .585-.072.837-.216a1.61 1.61 0 0 0 .612-.639c.15-.282.225-.612.225-.99zm4.021 4.158c-.576-.564-1.026-1.281-1.35-2.151-.318-.87-.477-1.809-.477-2.817 0-1.032.168-1.995.504-2.889.342-.9.828-1.641 1.458-2.223h.855v.081a6.06 6.06 0 0 0-1.521 2.277 7.67 7.67 0 0 0-.504 2.754 7.51 7.51 0 0 0 .477 2.664c.324.846.795 1.587 1.413 2.223v.081h-.855zm3.034-5.058c-.336-.132-.594-.324-.774-.576s-.27-.558-.27-.918c0-.324.081-.615.243-.873.162-.264.402-.471.72-.621.324-.156.714-.234 1.17-.234s.843.078 1.161.234c.324.15.567.357.729.621.168.258.252.549.252.873 0 .348-.093.654-.279.918-.186.258-.441.45-.765.576.372.114.666.315.882.603.222.282.333.624.333 1.026 0 .39-.096.732-.288 1.026a1.91 1.91 0 0 1-.819.675c-.348.156-.75.234-1.206.234s-.858-.078-1.206-.234a1.93 1.93 0 0 1-.801-.675c-.192-.294-.288-.636-.288-1.026 0-.402.108-.747.324-1.035s.51-.486.882-.594zm2.439-1.395c0-.366-.12-.648-.36-.846s-.57-.297-.99-.297c-.414 0-.741.099-.981.297s-.36.483-.36.855a1 1 0 0 0 .369.81c.252.204.576.306.972.306.402 0 .726-.102.972-.306.252-.21.378-.483.378-.819zm-1.35 1.755c-.444 0-.807.105-1.089.315-.282.204-.423.513-.423.927 0 .384.135.693.405.927.276.234.645.351 1.107.351s.828-.117 1.098-.351.405-.543.405-.927c0-.402-.138-.708-.414-.918-.276-.216-.639-.324-1.089-.324zm3.275 4.698v-.081c.618-.636 1.086-1.377 1.404-2.223.324-.846.486-1.734.486-2.664a7.55 7.55 0 0 0-.513-2.754 5.97 5.97 0 0 0-1.512-2.277v-.081h.855c.63.582 1.113 1.323 1.449 2.223.342.894.513 1.857.513 2.889 0 1.008-.162 1.947-.486 2.817-.318.87-.765 1.587-1.341 2.151h-.855z" class="B"/><circle cx="560.5" cy="211" r="3.5" class="C"/><path d="M492.646 222.727c.684 0 1.275.129 1.773.387.504.252.888.615 1.152 1.089.27.474.405 1.032.405 1.674s-.135 1.2-.405 1.674c-.264.468-.648.828-1.152 1.08-.498.246-1.089.369-1.773.369h-1.953v-6.273h1.953zm0 5.598c.81 0 1.428-.213 1.854-.639.426-.432.639-1.035.639-1.809 0-.78-.216-1.389-.648-1.827-.426-.438-1.041-.657-1.845-.657h-1.134v4.932h1.134zm9.342.675h-.819l-3.294-4.995V229h-.819v-6.282h.819l3.294 4.986v-4.986h.819V229zm1.063-1.449v-.621l3.159-4.374h.981v4.284h.9v.711h-.9V229h-.81v-1.449h-3.33zm3.366-4.14l-2.421 3.429h2.421v-3.429zm2.394 4.932l1.791-1.503c.432-.396.795-.807 1.089-1.233.3-.432.45-.855.45-1.269 0-.39-.096-.696-.288-.918-.186-.228-.489-.342-.909-.342-.408 0-.726.129-.954.387-.222.252-.342.591-.36 1.017h-.792c.024-.672.228-1.191.612-1.557s.879-.549 1.485-.549c.618 0 1.107.171 1.467.513.366.342.549.813.549 1.413 0 .498-.15.984-.45 1.458-.294.468-.63.882-1.008 1.242l-1.449 1.242h3.096v.684h-4.329v-.585z" class="B"/><g class="C"><circle cx="519.5" cy="226" r="3.5"/><circle cx="528.5" cy="226" r="3.5"/><circle cx="537.5" cy="226" r="3.5"/><circle cx="546.5" cy="226" r="3.5"/></g><path d="M493.996 244l-1.494-2.565h-.99V244h-.819v-6.273h2.025c.474 0 .873.081 1.197.243.33.162.576.381.738.657s.243.591.243.945a1.83 1.83 0 0 1-.378 1.143c-.246.33-.618.549-1.116.657l1.575 2.628h-.981zm-2.484-3.222h1.206c.444 0 .777-.108.999-.324.222-.222.333-.516.333-.882 0-.372-.111-.66-.333-.864-.216-.204-.549-.306-.999-.306h-1.206v2.376zm4.351.738c0-.504.102-.945.306-1.323.204-.384.483-.681.837-.891.36-.21.759-.315 1.197-.315.432 0 .807.093 1.125.279s.555.42.711.702v-.9h.828V244h-.828v-.918c-.162.288-.405.528-.729.72a2.17 2.17 0 0 1-1.116.279c-.438 0-.834-.108-1.188-.324s-.633-.519-.837-.909-.306-.834-.306-1.332zm4.176.009c0-.372-.075-.696-.225-.972a1.55 1.55 0 0 0-.612-.63c-.252-.15-.531-.225-.837-.225s-.585.072-.837.216-.453.354-.603.63-.225.6-.225.972c0 .378.075.708.225.99a1.63 1.63 0 0 0 .603.639c.252.144.531.216.837.216s.585-.072.837-.216a1.61 1.61 0 0 0 .612-.639c.15-.282.225-.609.225-.981zm1.906-.009c0-.504.102-.945.306-1.323.204-.384.483-.681.837-.891a2.35 2.35 0 0 1 1.206-.315 2.2 2.2 0 0 1 1.071.27c.33.174.582.405.756.693v-2.61h.828V244h-.828v-.927c-.162.294-.402.537-.72.729a2.17 2.17 0 0 1-1.116.279c-.438 0-.837-.108-1.197-.324-.354-.216-.633-.519-.837-.909s-.306-.834-.306-1.332zm4.176.009c0-.372-.075-.696-.225-.972a1.55 1.55 0 0 0-.612-.63c-.252-.15-.531-.225-.837-.225s-.585.072-.837.216-.453.354-.603.63-.225.6-.225.972c0 .378.075.708.225.99a1.63 1.63 0 0 0 .603.639c.252.144.531.216.837.216s.585-.072.837-.216a1.61 1.61 0 0 0 .612-.639c.15-.282.225-.609.225-.981zm4.048 1.719l1.53-4.176h.873L510.637 244h-.954l-1.935-4.932h.882l1.539 4.176zm2.903-1.728c0-.504.102-.945.306-1.323.204-.384.483-.681.837-.891a2.35 2.35 0 0 1 1.206-.315 2.2 2.2 0 0 1 1.071.27c.33.174.582.405.756.693v-2.61h.828V244h-.828v-.927c-.162.294-.402.537-.72.729a2.17 2.17 0 0 1-1.116.279c-.438 0-.837-.108-1.197-.324-.354-.216-.633-.519-.837-.909s-.306-.834-.306-1.332zm4.176.009c0-.372-.075-.696-.225-.972a1.55 1.55 0 0 0-.612-.63c-.252-.15-.531-.225-.837-.225s-.585.072-.837.216-.453.354-.603.63-.225.6-.225.972c0 .378.075.708.225.99a1.63 1.63 0 0 0 .603.639c.252.144.531.216.837.216s.585-.072.837-.216a1.61 1.61 0 0 0 .612-.639c.15-.282.225-.609.225-.981z" class="B"/><g class="C"><circle cx="524.5" cy="241" r="3.5"/><circle cx="533.5" cy="241" r="3.5"/></g><path d="M495.526 252.727V259h-.819v-2.844h-3.195V259h-.819v-6.273h.819v2.754h3.195v-2.754h.819zm3.549 6.354a2.55 2.55 0 0 1-1.26-.315 2.29 2.29 0 0 1-.882-.891c-.21-.39-.315-.84-.315-1.35 0-.504.108-.948.324-1.332.222-.39.522-.687.9-.891.378-.21.801-.315 1.269-.315s.891.105 1.269.315a2.21 2.21 0 0 1 .891.882c.222.384.333.831.333 1.341s-.114.96-.342 1.35c-.222.384-.525.681-.909.891a2.62 2.62 0 0 1-1.278.315zm0-.72a1.73 1.73 0 0 0 .828-.207c.258-.138.465-.345.621-.621.162-.276.243-.612.243-1.008s-.078-.732-.234-1.008-.36-.48-.612-.612c-.252-.138-.525-.207-.819-.207-.3 0-.576.069-.828.207-.246.132-.444.336-.594.612s-.225.612-.225 1.008c0 .402.072.741.216 1.017.15.276.348.483.594.621.246.132.516.198.81.198zm9.537-4.383c.384 0 .726.081 1.026.243.3.156.537.393.711.711s.261.705.261 1.161V259h-.81v-2.79c0-.492-.123-.867-.369-1.125-.24-.264-.567-.396-.981-.396-.426 0-.765.138-1.017.414-.252.27-.378.663-.378 1.179V259h-.81v-2.79c0-.492-.123-.867-.369-1.125-.24-.264-.567-.396-.981-.396-.426 0-.765.138-1.017.414-.252.27-.378.663-.378 1.179V259h-.819v-4.932h.819v.711c.162-.258.378-.456.648-.594.276-.138.579-.207.909-.207.414 0 .78.093 1.098.279s.555.459.711.819c.138-.348.366-.618.684-.81s.672-.288 1.062-.288zm7.842 2.367a4.82 4.82 0 0 1-.027.495h-3.942c.03.486.195.867.495 1.143.306.27.675.405 1.107.405.354 0 .648-.081.882-.243.24-.168.408-.39.504-.666h.882a2.14 2.14 0 0 1-.792 1.161c-.396.294-.888.441-1.476.441-.468 0-.888-.105-1.26-.315-.366-.21-.654-.507-.864-.891-.21-.39-.315-.84-.315-1.35s.102-.957.306-1.341.489-.678.855-.882c.372-.21.798-.315 1.278-.315.468 0 .882.102 1.242.306a2.08 2.08 0 0 1 .828.846c.198.354.297.756.297 1.206zm-.846-.171c0-.312-.069-.579-.207-.801-.138-.228-.327-.399-.567-.513a1.69 1.69 0 0 0-.783-.18c-.414 0-.768.132-1.062.396-.288.264-.453.63-.495 1.098h3.114zm9.258 2.826h-.819l-3.294-4.995V259h-.819v-6.282h.819l3.294 4.986v-4.986h.819V259zm5.896-2.655a4.82 4.82 0 0 1-.027.495h-3.942c.03.486.195.867.495 1.143.306.27.675.405 1.107.405.354 0 .648-.081.882-.243.24-.168.408-.39.504-.666h.882a2.14 2.14 0 0 1-.792 1.161c-.396.294-.888.441-1.476.441-.468 0-.888-.105-1.26-.315-.366-.21-.654-.507-.864-.891-.21-.39-.315-.84-.315-1.35s.102-.957.306-1.341.489-.678.855-.882c.372-.21.798-.315 1.278-.315.468 0 .882.102 1.242.306a2.08 2.08 0 0 1 .828.846c.198.354.297.756.297 1.206zm-.846-.171c0-.312-.069-.579-.207-.801-.138-.228-.327-.399-.567-.513a1.69 1.69 0 0 0-.783-.18c-.414 0-.768.132-1.062.396-.288.264-.453.63-.495 1.098h3.114zm2.926-1.431v2.907c0 .24.051.411.153.513.102.096.279.144.531.144h.603V259h-.738c-.456 0-.798-.105-1.026-.315s-.342-.555-.342-1.035v-2.907h-.639v-.675h.639v-1.242h.819v1.242h1.287v.675h-1.287zm8.85-.675L540.153 259h-.846l-1.188-3.915-1.188 3.915h-.846l-1.548-4.932h.837l1.134 4.14 1.224-4.14h.837l1.197 4.149 1.116-4.149h.81zm2.964 5.013a2.55 2.55 0 0 1-1.26-.315 2.29 2.29 0 0 1-.882-.891c-.21-.39-.315-.84-.315-1.35 0-.504.108-.948.324-1.332.222-.39.522-.687.9-.891.378-.21.801-.315 1.269-.315s.891.105 1.269.315a2.21 2.21 0 0 1 .891.882c.222.384.333.831.333 1.341s-.114.96-.342 1.35c-.222.384-.525.681-.909.891a2.62 2.62 0 0 1-1.278.315zm0-.72a1.73 1.73 0 0 0 .828-.207c.258-.138.465-.345.621-.621.162-.276.243-.612.243-1.008s-.078-.732-.234-1.008-.36-.48-.612-.612c-.252-.138-.525-.207-.819-.207-.3 0-.576.069-.828.207-.246.132-.444.336-.594.612s-.225.612-.225 1.008c0 .402.072.741.216 1.017.15.276.348.483.594.621.246.132.516.198.81.198zm4.424-3.492a1.58 1.58 0 0 1 .612-.657c.27-.156.597-.234.981-.234v.846h-.216c-.918 0-1.377.498-1.377 1.494V259h-.819v-4.932h.819v.801zm5.293 4.131l-1.935-2.178V259h-.819v-6.66h.819v3.915l1.899-2.187h1.143l-2.322 2.457 2.331 2.475h-1.116zm2.301-5.733a.54.54 0 0 1-.558-.558.54.54 0 0 1 .558-.558.5.5 0 0 1 .378.162.54.54 0 0 1 .162.396.54.54 0 0 1-.162.396.5.5 0 0 1-.378.162zm.396.801V259h-.819v-4.932h.819zm3.798-.09c.6 0 1.086.183 1.458.549.372.36.558.882.558 1.566V259h-.81v-2.79c0-.492-.123-.867-.369-1.125-.246-.264-.582-.396-1.008-.396-.432 0-.777.135-1.035.405-.252.27-.378.663-.378 1.179V259h-.819v-4.932h.819v.702c.162-.252.381-.447.657-.585a2.08 2.08 0 0 1 .927-.207zm5.388.009a2.17 2.17 0 0 1 1.116.279c.324.186.564.42.72.702v-.9h.828v5.04c0 .45-.096.849-.288 1.197-.192.354-.468.63-.828.828-.354.198-.768.297-1.242.297-.648 0-1.188-.153-1.62-.459s-.687-.723-.765-1.251h.81a1.27 1.27 0 0 0 .558.72c.282.186.621.279 1.017.279.45 0 .816-.141 1.098-.423.288-.282.432-.678.432-1.188v-1.035a1.97 1.97 0 0 1-.72.72c-.318.192-.69.288-1.116.288-.438 0-.837-.108-1.197-.324-.354-.216-.633-.519-.837-.909s-.306-.834-.306-1.332c0-.504.102-.945.306-1.323.204-.384.483-.681.837-.891.36-.21.759-.315 1.197-.315zm1.836 2.538c0-.372-.075-.696-.225-.972a1.55 1.55 0 0 0-.612-.63c-.252-.15-.531-.225-.837-.225s-.585.072-.837.216-.453.354-.603.63-.225.6-.225.972c0 .378.075.708.225.99a1.63 1.63 0 0 0 .603.639c.252.144.531.216.837.216s.585-.072.837-.216a1.61 1.61 0 0 0 .612-.639c.15-.282.225-.609.225-.981z" class="B"/><circle cx="575.5" cy="256" r="3.5" class="C"/><path d="M374.239 294.727v.666h-2.727v2.115h2.214v.666h-2.214V301h-.819v-6.273h3.546zm1.412.54a.54.54 0 0 1-.558-.558.54.54 0 0 1 .558-.558.5.5 0 0 1 .378.162.54.54 0 0 1 .162.396.54.54 0 0 1-.162.396.5.5 0 0 1-.378.162zm.396.801V301h-.819v-4.932h.819zm2.215-1.728V301h-.819v-6.66h.819zm5.896 4.005a4.82 4.82 0 0 1-.027.495h-3.942c.03.486.195.867.495 1.143.306.27.675.405 1.107.405.354 0 .648-.081.882-.243.24-.168.408-.39.504-.666h.882a2.14 2.14 0 0 1-.792 1.161c-.396.294-.888.441-1.476.441-.468 0-.888-.105-1.26-.315-.366-.21-.654-.507-.864-.891-.21-.39-.315-.84-.315-1.35s.102-.957.306-1.341.489-.678.855-.882c.372-.21.798-.315 1.278-.315.468 0 .882.102 1.242.306a2.08 2.08 0 0 1 .828.846c.198.354.297.756.297 1.206zm-.846-.171c0-.312-.069-.579-.207-.801-.138-.228-.327-.399-.567-.513a1.69 1.69 0 0 0-.783-.18c-.414 0-.768.132-1.062.396-.288.264-.453.63-.495 1.098h3.114zm8.52-1.611a1.74 1.74 0 0 1-.54 1.305c-.354.342-.897.513-1.629.513h-1.206V301h-.819v-6.273h2.025c.708 0 1.245.171 1.611.513.372.342.558.783.558 1.323zm-2.169 1.143c.456 0 .792-.099 1.008-.297s.324-.48.324-.846c0-.774-.444-1.161-1.332-1.161h-1.206v2.304h1.206zm7.687.639a4.82 4.82 0 0 1-.027.495h-3.942c.03.486.195.867.495 1.143.306.27.675.405 1.107.405.354 0 .648-.081.882-.243.24-.168.408-.39.504-.666h.882a2.14 2.14 0 0 1-.792 1.161c-.396.294-.888.441-1.476.441-.468 0-.888-.105-1.26-.315-.366-.21-.654-.507-.864-.891-.21-.39-.315-.84-.315-1.35s.102-.957.306-1.341.489-.678.855-.882c.372-.21.798-.315 1.278-.315.468 0 .882.102 1.242.306a2.08 2.08 0 0 1 .828.846c.198.354.297.756.297 1.206zm-.846-.171c0-.312-.069-.579-.207-.801-.138-.228-.327-.399-.567-.513a1.69 1.69 0 0 0-.783-.18c-.414 0-.768.132-1.062.396-.288.264-.453.63-.495 1.098h3.114zm2.746-1.305a1.58 1.58 0 0 1 .612-.657c.27-.156.597-.234.981-.234v.846h-.216c-.918 0-1.377.498-1.377 1.494V301h-.819v-4.932h.819v.801zm8.47-.891c.384 0 .726.081 1.026.243.3.156.537.393.711.711s.261.705.261 1.161V301h-.81v-2.79c0-.492-.123-.867-.369-1.125-.24-.264-.567-.396-.981-.396-.426 0-.765.138-1.017.414-.252.27-.378.663-.378 1.179V301h-.81v-2.79c0-.492-.123-.867-.369-1.125-.24-.264-.567-.396-.981-.396-.426 0-.765.138-1.017.414-.252.27-.378.663-.378 1.179V301h-.819v-4.932h.819v.711c.162-.258.378-.456.648-.594.276-.138.579-.207.909-.207.414 0 .78.093 1.098.279s.555.459.711.819c.138-.348.366-.618.684-.81s.672-.288 1.062-.288zm3.764-.711a.54.54 0 0 1-.558-.558.54.54 0 0 1 .558-.558.5.5 0 0 1 .378.162.54.54 0 0 1 .162.396.54.54 0 0 1-.162.396.5.5 0 0 1-.378.162zm.396.801V301h-.819v-4.932h.819zm3.142 5.013c-.378 0-.717-.063-1.017-.189-.3-.132-.537-.312-.711-.54a1.46 1.46 0 0 1-.288-.801h.846c.024.246.138.447.342.603.21.156.483.234.819.234.312 0 .558-.069.738-.207s.27-.312.27-.522c0-.216-.096-.375-.288-.477-.192-.108-.489-.213-.891-.315-.366-.096-.666-.192-.9-.288a1.71 1.71 0 0 1-.594-.441c-.162-.198-.243-.456-.243-.774 0-.252.075-.483.225-.693s.363-.375.639-.495c.276-.126.591-.189.945-.189.546 0 .987.138 1.323.414s.516.654.54 1.134h-.819a.84.84 0 0 0-.315-.621c-.186-.156-.438-.234-.756-.234-.294 0-.528.063-.702.189s-.261.291-.261.495c0 .162.051.297.153.405.108.102.24.186.396.252.162.06.384.129.666.207a6.56 6.56 0 0 1 .864.288c.222.09.411.228.567.414.162.186.246.429.252.729a1.25 1.25 0 0 1-.225.729c-.15.216-.363.387-.639.513-.27.12-.582.18-.936.18zm4.702 0c-.378 0-.717-.063-1.017-.189-.3-.132-.537-.312-.711-.54a1.46 1.46 0 0 1-.288-.801h.846c.024.246.138.447.342.603.21.156.483.234.819.234.312 0 .558-.069.738-.207s.27-.312.27-.522c0-.216-.096-.375-.288-.477-.192-.108-.489-.213-.891-.315-.366-.096-.666-.192-.9-.288a1.71 1.71 0 0 1-.594-.441c-.162-.198-.243-.456-.243-.774 0-.252.075-.483.225-.693s.363-.375.639-.495c.276-.126.591-.189.945-.189.546 0 .987.138 1.323.414s.516.654.54 1.134h-.819a.84.84 0 0 0-.315-.621c-.186-.156-.438-.234-.756-.234-.294 0-.528.063-.702.189s-.261.291-.261.495c0 .162.051.297.153.405.108.102.24.186.396.252.162.06.384.129.666.207a6.56 6.56 0 0 1 .864.288c.222.09.411.228.567.414.162.186.246.429.252.729a1.25 1.25 0 0 1-.225.729c-.15.216-.363.387-.639.513-.27.12-.582.18-.936.18zm3.379-5.814a.54.54 0 0 1-.558-.558.54.54 0 0 1 .558-.558.5.5 0 0 1 .378.162.54.54 0 0 1 .162.396.54.54 0 0 1-.162.396.5.5 0 0 1-.378.162zm.396.801V301h-.819v-4.932h.819zm3.547 5.013a2.55 2.55 0 0 1-1.26-.315 2.29 2.29 0 0 1-.882-.891c-.21-.39-.315-.84-.315-1.35 0-.504.108-.948.324-1.332.222-.39.522-.687.9-.891.378-.21.801-.315 1.269-.315s.891.105 1.269.315a2.21 2.21 0 0 1 .891.882c.222.384.333.831.333 1.341s-.114.96-.342 1.35c-.222.384-.525.681-.909.891a2.62 2.62 0 0 1-1.278.315zm0-.72a1.73 1.73 0 0 0 .828-.207c.258-.138.465-.345.621-.621.162-.276.243-.612.243-1.008s-.078-.732-.234-1.008-.36-.48-.612-.612c-.252-.138-.525-.207-.819-.207-.3 0-.576.069-.828.207-.246.132-.444.336-.594.612s-.225.612-.225 1.008c0 .402.072.741.216 1.017.15.276.348.483.594.621.246.132.516.198.81.198zm6.009-4.383c.6 0 1.086.183 1.458.549.372.36.558.882.558 1.566V301h-.81v-2.79c0-.492-.123-.867-.369-1.125-.246-.264-.582-.396-1.008-.396-.432 0-.777.135-1.035.405-.252.27-.378.663-.378 1.179V301h-.819v-4.932h.819v.702c.162-.252.381-.447.657-.585a2.08 2.08 0 0 1 .927-.207z" class="B"/><g class="C"><circle cx="441.5" cy="298" r="3.5"/><circle cx="450.5" cy="298" r="3.5"/><circle cx="459.5" cy="298" r="3.5"/><circle cx="468.5" cy="298" r="3.5"/></g><path d="M371.512 315.334h2.196V316h-3.015v-6.273h.819v5.607zm3.489-5.067a.54.54 0 0 1-.558-.558.54.54 0 0 1 .558-.558.5.5 0 0 1 .378.162.54.54 0 0 1 .162.396.54.54 0 0 1-.162.396.5.5 0 0 1-.378.162zm.396.801V316h-.819v-4.932h.819zm3.799-.09c.6 0 1.086.183 1.458.549.372.36.558.882.558 1.566V316h-.81v-2.79c0-.492-.123-.867-.369-1.125-.246-.264-.582-.396-1.008-.396-.432 0-.777.135-1.035.405-.252.27-.378.663-.378 1.179V316h-.819v-4.932h.819v.702c.162-.252.381-.447.657-.585a2.08 2.08 0 0 1 .927-.207zm7.727.09V316h-.819v-.729a1.62 1.62 0 0 1-.657.594c-.276.138-.582.207-.918.207-.384 0-.729-.078-1.035-.234a1.79 1.79 0 0 1-.729-.72c-.174-.318-.261-.705-.261-1.161v-2.889h.81v2.781c0 .486.123.861.369 1.125.246.258.582.387 1.008.387.438 0 .783-.135 1.035-.405s.378-.663.378-1.179v-2.709h.819zM390.88 316l-1.17-1.836-1.125 1.836h-.855l1.593-2.448-1.593-2.484h.927l1.17 1.827 1.116-1.827h.855l-1.584 2.439 1.593 2.493h-.927zm6.085-6.273c.684 0 1.275.129 1.773.387.504.252.888.615 1.152 1.089.27.474.405 1.032.405 1.674s-.135 1.2-.405 1.674c-.264.468-.648.828-1.152 1.08-.498.246-1.089.369-1.773.369h-1.953v-6.273h1.953zm0 5.598c.81 0 1.428-.213 1.854-.639.426-.432.639-1.035.639-1.809 0-.78-.216-1.389-.648-1.827-.426-.438-1.041-.657-1.845-.657h-1.134v4.932h1.134zm4.834-5.058a.54.54 0 0 1-.558-.558.54.54 0 0 1 .558-.558.5.5 0 0 1 .378.162.54.54 0 0 1 .162.396.54.54 0 0 1-.162.396.5.5 0 0 1-.378.162zm.396.801V316h-.819v-4.932h.819zm3.141 5.013c-.378 0-.717-.063-1.017-.189-.3-.132-.537-.312-.711-.54a1.46 1.46 0 0 1-.288-.801h.846c.024.246.138.447.342.603.21.156.483.234.819.234.312 0 .558-.069.738-.207s.27-.312.27-.522c0-.216-.096-.375-.288-.477-.192-.108-.489-.213-.891-.315-.366-.096-.666-.192-.9-.288a1.71 1.71 0 0 1-.594-.441c-.162-.198-.243-.456-.243-.774 0-.252.075-.483.225-.693s.363-.375.639-.495c.276-.126.591-.189.945-.189.546 0 .987.138 1.323.414s.516.654.54 1.134h-.819a.84.84 0 0 0-.315-.621c-.186-.156-.438-.234-.756-.234-.294 0-.528.063-.702.189s-.261.291-.261.495c0 .162.051.297.153.405.108.102.24.186.396.252.162.06.384.129.666.207a6.56 6.56 0 0 1 .864.288c.222.09.411.228.567.414.162.186.246.429.252.729a1.25 1.25 0 0 1-.225.729c-.15.216-.363.387-.639.513-.27.12-.582.18-.936.18zm3.956-4.338v2.907c0 .24.051.411.153.513.102.096.279.144.531.144h.603V316h-.738c-.456 0-.798-.105-1.026-.315s-.342-.555-.342-1.035v-2.907h-.639v-.675h.639v-1.242h.819v1.242h1.287v.675h-1.287zm3.098.126a1.58 1.58 0 0 1 .612-.657c.27-.156.597-.234.981-.234v.846h-.216c-.918 0-1.377.498-1.377 1.494V316h-.819v-4.932h.819v.801zm2.961-1.602a.54.54 0 0 1-.558-.558.54.54 0 0 1 .558-.558.5.5 0 0 1 .378.162.54.54 0 0 1 .162.396.54.54 0 0 1-.162.396.5.5 0 0 1-.378.162zm.396.801V316h-.819v-4.932h.819zm2.215.918c.168-.294.414-.534.738-.72s.693-.279 1.107-.279a2.3 2.3 0 0 1 1.197.315c.354.21.633.507.837.891.204.378.306.819.306 1.323 0 .498-.102.942-.306 1.332a2.25 2.25 0 0 1-.846.909c-.354.216-.75.324-1.188.324-.426 0-.801-.093-1.125-.279-.318-.186-.558-.423-.72-.711V316h-.819v-6.66h.819v2.646zm3.348 1.53c0-.372-.075-.696-.225-.972a1.55 1.55 0 0 0-.612-.63c-.252-.144-.531-.216-.837-.216-.3 0-.579.075-.837.225-.252.144-.456.357-.612.639-.15.276-.225.597-.225.963 0 .372.075.699.225.981.156.276.36.489.612.639a1.69 1.69 0 0 0 .837.216c.306 0 .585-.072.837-.216a1.61 1.61 0 0 0 .612-.639c.15-.282.225-.612.225-.99zm6.289-2.448V316h-.819v-.729a1.62 1.62 0 0 1-.657.594c-.276.138-.582.207-.918.207-.384 0-.729-.078-1.035-.234a1.79 1.79 0 0 1-.729-.72c-.174-.318-.261-.705-.261-1.161v-2.889h.81v2.781c0 .486.123.861.369 1.125.246.258.582.387 1.008.387.438 0 .783-.135 1.035-.405s.378-.663.378-1.179v-2.709h.819zm2.382.675v2.907c0 .24.051.411.153.513.102.096.279.144.531.144h.603V316h-.738c-.456 0-.798-.105-1.026-.315s-.342-.555-.342-1.035v-2.907h-.639v-.675h.639v-1.242h.819v1.242h1.287v.675h-1.287zm2.702-1.476a.54.54 0 0 1-.558-.558.54.54 0 0 1 .558-.558.5.5 0 0 1 .378.162.54.54 0 0 1 .162.396.54.54 0 0 1-.162.396.5.5 0 0 1-.378.162zm.396.801V316h-.819v-4.932h.819zm3.547 5.013a2.55 2.55 0 0 1-1.26-.315 2.29 2.29 0 0 1-.882-.891c-.21-.39-.315-.84-.315-1.35 0-.504.108-.948.324-1.332.222-.39.522-.687.9-.891.378-.21.801-.315 1.269-.315s.891.105 1.269.315a2.21 2.21 0 0 1 .891.882c.222.384.333.831.333 1.341s-.114.96-.342 1.35c-.222.384-.525.681-.909.891a2.62 2.62 0 0 1-1.278.315zm0-.72a1.73 1.73 0 0 0 .828-.207c.258-.138.465-.345.621-.621.162-.276.243-.612.243-1.008s-.078-.732-.234-1.008-.36-.48-.612-.612c-.252-.138-.525-.207-.819-.207-.3 0-.576.069-.828.207-.246.132-.444.336-.594.612s-.225.612-.225 1.008c0 .402.072.741.216 1.017.15.276.348.483.594.621.246.132.516.198.81.198zm6.009-4.383c.6 0 1.086.183 1.458.549.372.36.558.882.558 1.566V316h-.81v-2.79c0-.492-.123-.867-.369-1.125-.246-.264-.582-.396-1.008-.396-.432 0-.777.135-1.035.405-.252.27-.378.663-.378 1.179V316h-.819v-4.932h.819v.702c.162-.252.381-.447.657-.585a2.08 2.08 0 0 1 .927-.207zm5.1 5.103c-.378 0-.717-.063-1.017-.189-.3-.132-.537-.312-.711-.54a1.46 1.46 0 0 1-.288-.801h.846c.024.246.138.447.342.603.21.156.483.234.819.234.312 0 .558-.069.738-.207s.27-.312.27-.522c0-.216-.096-.375-.288-.477-.192-.108-.489-.213-.891-.315-.366-.096-.666-.192-.9-.288a1.71 1.71 0 0 1-.594-.441c-.162-.198-.243-.456-.243-.774 0-.252.075-.483.225-.693s.363-.375.639-.495c.276-.126.591-.189.945-.189.546 0 .987.138 1.323.414s.516.654.54 1.134h-.819a.84.84 0 0 0-.315-.621c-.186-.156-.438-.234-.756-.234-.294 0-.528.063-.702.189s-.261.291-.261.495c0 .162.051.297.153.405.108.102.24.186.396.252.162.06.384.129.666.207a6.56 6.56 0 0 1 .864.288c.222.09.411.228.567.414.162.186.246.429.252.729a1.25 1.25 0 0 1-.225.729c-.15.216-.363.387-.639.513-.27.12-.582.18-.936.18z" class="B"/><circle cx="455.5" cy="313" r="3.5" class="C"/><g class="B"><path d="M406.577 25.727L404.759 32h-.918l-1.458-5.049L400.871 32l-.909.009-1.755-6.282h.873l1.368 5.319 1.512-5.319h.918l1.44 5.301 1.377-5.301h.882zm5.396 3.618a4.82 4.82 0 0 1-.027.495h-3.942c.03.486.195.867.495 1.143.306.27.675.405 1.107.405.354 0 .648-.081.882-.243.24-.168.408-.39.504-.666h.882a2.14 2.14 0 0 1-.792 1.161c-.396.294-.888.441-1.476.441-.468 0-.888-.105-1.26-.315-.366-.21-.654-.507-.864-.891-.21-.39-.315-.84-.315-1.35s.102-.957.306-1.341.489-.678.855-.882c.372-.21.798-.315 1.278-.315.468 0 .882.102 1.242.306a2.08 2.08 0 0 1 .828.846c.198.354.297.756.297 1.206zm-.846-.171c0-.312-.069-.579-.207-.801-.138-.228-.327-.399-.567-.513a1.69 1.69 0 0 0-.783-.18c-.414 0-.768.132-1.062.396-.288.264-.453.63-.495 1.098h3.114zm2.746-1.188c.168-.294.414-.534.738-.72s.693-.279 1.107-.279a2.3 2.3 0 0 1 1.197.315c.354.21.633.507.837.891.204.378.306.819.306 1.323 0 .498-.102.942-.306 1.332a2.25 2.25 0 0 1-.846.909c-.354.216-.75.324-1.188.324-.426 0-.801-.093-1.125-.279-.318-.186-.558-.423-.72-.711V32h-.819v-6.66h.819v2.646zm3.348 1.53c0-.372-.075-.696-.225-.972a1.55 1.55 0 0 0-.612-.63c-.252-.144-.531-.216-.837-.216-.3 0-.579.075-.837.225-.252.144-.456.357-.612.639-.15.276-.225.597-.225.963 0 .372.075.699.225.981.156.276.36.489.612.639a1.69 1.69 0 0 0 .837.216c.306 0 .585-.072.837-.216a1.61 1.61 0 0 0 .612-.639c.15-.282.225-.612.225-.99zM401.996 47l-1.494-2.565h-.99V47h-.819v-6.273h2.025c.474 0 .873.081 1.197.243.33.162.576.381.738.657s.243.591.243.945a1.83 1.83 0 0 1-.378 1.143c-.246.33-.618.549-1.116.657L402.977 47h-.981zm-2.484-3.222h1.206c.444 0 .777-.108.999-.324.222-.222.333-.516.333-.882 0-.372-.111-.66-.333-.864-.216-.204-.549-.306-.999-.306h-1.206v2.376zm5.476-2.385v2.097h2.286v.675h-2.286v2.16h2.556V47h-3.375v-6.282h3.375v.675h-2.556zm-20.434 75.334v.666h-1.71V123h-.819v-5.607h-1.719v-.666h4.248zm3.456 1.251c.372 0 .708.081 1.008.243a1.64 1.64 0 0 1 .702.711c.174.318.261.705.261 1.161V123h-.81v-2.79c0-.492-.123-.867-.369-1.125-.246-.264-.582-.396-1.008-.396-.432 0-.777.135-1.035.405-.252.27-.378.663-.378 1.179V123h-.819v-6.66h.819v2.43a1.62 1.62 0 0 1 .666-.585 2.2 2.2 0 0 1 .963-.207zm7.809 2.367a4.82 4.82 0 0 1-.027.495h-3.942c.03.486.195.867.495 1.143.306.27.675.405 1.107.405.354 0 .648-.081.882-.243.24-.168.408-.39.504-.666h.882a2.14 2.14 0 0 1-.792 1.161c-.396.294-.888.441-1.476.441-.468 0-.888-.105-1.26-.315-.366-.21-.654-.507-.864-.891-.21-.39-.315-.84-.315-1.35s.102-.957.306-1.341.489-.678.855-.882c.372-.21.798-.315 1.278-.315.468 0 .882.102 1.242.306a2.08 2.08 0 0 1 .828.846c.198.354.297.756.297 1.206zm-.846-.171c0-.312-.069-.579-.207-.801-.138-.228-.327-.399-.567-.513a1.69 1.69 0 0 0-.783-.18c-.414 0-.768.132-1.062.396-.288.264-.453.63-.495 1.098h3.114zm4.078 2.907a2.55 2.55 0 0 1-1.26-.315 2.29 2.29 0 0 1-.882-.891c-.21-.39-.315-.84-.315-1.35 0-.504.108-.948.324-1.332.222-.39.522-.687.9-.891.378-.21.801-.315 1.269-.315s.891.105 1.269.315a2.21 2.21 0 0 1 .891.882c.222.384.333.831.333 1.341s-.114.96-.342 1.35c-.222.384-.525.681-.909.891a2.62 2.62 0 0 1-1.278.315zm0-.72a1.73 1.73 0 0 0 .828-.207c.258-.138.465-.345.621-.621.162-.276.243-.612.243-1.008s-.078-.732-.234-1.008-.36-.48-.612-.612c-.252-.138-.525-.207-.819-.207-.3 0-.576.069-.828.207-.246.132-.444.336-.594.612s-.225.612-.225 1.008c0 .402.072.741.216 1.017.15.276.348.483.594.621.246.132.516.198.81.198zm4.425-3.492a1.58 1.58 0 0 1 .612-.657c.27-.156.597-.234.981-.234v.846h-.216c-.918 0-1.377.498-1.377 1.494V123h-.819v-4.932h.819v.801zm6.786-.801l-2.97 7.254h-.846l.972-2.376-1.989-4.878h.909l1.548 3.996 1.53-3.996h.846zm-25.375 98.495a1.74 1.74 0 0 1-.54 1.305c-.354.342-.897.513-1.629.513h-1.206V221h-.819v-6.273h2.025c.708 0 1.245.171 1.611.513.372.342.558.783.558 1.323zm-2.169 1.143c.456 0 .792-.099 1.008-.297s.324-.48.324-.846c0-.774-.444-1.161-1.332-1.161h-1.206v2.304h1.206zm4.006-.837a1.58 1.58 0 0 1 .612-.657c.27-.156.597-.234.981-.234v.846h-.216c-.918 0-1.377.498-1.377 1.494V221h-.819v-4.932h.819v.801zm2.232 1.647c0-.504.102-.945.306-1.323.204-.384.483-.681.837-.891.36-.21.759-.315 1.197-.315.432 0 .807.093 1.125.279s.555.42.711.702v-.9h.828V221h-.828v-.918c-.162.288-.405.528-.729.72a2.17 2.17 0 0 1-1.116.279c-.438 0-.834-.108-1.188-.324s-.633-.519-.837-.909-.306-.834-.306-1.332zm4.176.009c0-.372-.075-.696-.225-.972a1.55 1.55 0 0 0-.612-.63c-.252-.15-.531-.225-.837-.225s-.585.072-.837.216-.453.354-.603.63-.225.6-.225.972c0 .378.075.708.225.99a1.63 1.63 0 0 0 .603.639c.252.144.531.216.837.216s.585-.072.837-.216a1.61 1.61 0 0 0 .612-.639c.15-.282.225-.609.225-.981zm1.906 0c0-.51.102-.954.306-1.332.204-.384.486-.681.846-.891.366-.21.783-.315 1.251-.315.606 0 1.104.147 1.494.441.396.294.657.702.783 1.224h-.882a1.26 1.26 0 0 0-.495-.711c-.24-.174-.54-.261-.9-.261-.468 0-.846.162-1.134.486-.288.318-.432.771-.432 1.359 0 .594.144 1.053.432 1.377s.666.486 1.134.486c.36 0 .66-.084.9-.252s.405-.408.495-.72h.882a2.19 2.19 0 0 1-.792 1.215c-.396.3-.891.45-1.485.45-.468 0-.885-.105-1.251-.315-.36-.21-.642-.507-.846-.891s-.306-.834-.306-1.35zm6.772-1.782v2.907c0 .24.051.411.153.513.102.096.279.144.531.144h.603V221h-.738c-.456 0-.798-.105-1.026-.315s-.342-.555-.342-1.035v-2.907h-.639v-.675h.639v-1.242h.819v1.242h1.287v.675h-1.287zm2.702-1.476a.54.54 0 1 1 0-1.116.5.5 0 0 1 .378.162.54.54 0 0 1 .162.396.54.54 0 0 1-.162.396.5.5 0 0 1-.378.162zm.396.801V221h-.819v-4.932h.819zm1.09 2.457c0-.51.102-.954.306-1.332.204-.384.486-.681.846-.891.366-.21.783-.315 1.251-.315.606 0 1.104.147 1.494.441.396.294.657.702.783 1.224h-.882a1.26 1.26 0 0 0-.495-.711c-.24-.174-.54-.261-.9-.261-.468 0-.846.162-1.134.486-.288.318-.432.771-.432 1.359 0 .594.144 1.053.432 1.377s.666.486 1.134.486c.36 0 .66-.084.9-.252s.405-.408.495-.72h.882a2.19 2.19 0 0 1-.792 1.215c-.396.3-.891.45-1.485.45-.468 0-.885-.105-1.251-.315-.36-.21-.642-.507-.846-.891s-.306-.834-.306-1.35zm10.273-.18a4.82 4.82 0 0 1-.027.495h-3.942c.03.486.195.867.495 1.143.306.27.675.405 1.107.405.354 0 .648-.081.882-.243.24-.168.408-.39.504-.666h.882a2.14 2.14 0 0 1-.792 1.161c-.396.294-.888.441-1.476.441-.468 0-.888-.105-1.26-.315-.366-.21-.654-.507-.864-.891-.21-.39-.315-.84-.315-1.35s.102-.957.306-1.341.489-.678.855-.882c.372-.21.798-.315 1.278-.315.468 0 .882.102 1.242.306a2.08 2.08 0 0 1 .828.846c.198.354.297.756.297 1.206zm-.846-.171c0-.312-.069-.579-.207-.801-.138-.228-.327-.399-.567-.513a1.69 1.69 0 0 0-.783-.18c-.414 0-.768.132-1.062.396-.288.264-.453.63-.495 1.098h3.114zm75.833-182.306L493.184 39h-.927l-1.503-2.448L489.323 39h-.909l1.917-3.132-1.926-3.141h.918l1.512 2.457 1.44-2.457h.918l-1.935 3.141zm5.014 3.195c-.414 0-.786-.072-1.116-.216-.324-.15-.579-.354-.765-.612a1.59 1.59 0 0 1-.288-.909h.873c.03.294.15.543.36.747.216.198.528.297.936.297.39 0 .696-.096.918-.288.228-.198.342-.45.342-.756 0-.24-.066-.435-.198-.585s-.297-.264-.495-.342-.465-.162-.801-.252c-.414-.108-.747-.216-.999-.324a1.66 1.66 0 0 1-.639-.504c-.174-.234-.261-.546-.261-.936 0-.342.087-.645.261-.909s.417-.468.729-.612c.318-.144.681-.216 1.089-.216.588 0 1.068.147 1.44.441.378.294.591.684.639 1.17h-.9c-.03-.24-.156-.45-.378-.63-.222-.186-.516-.279-.882-.279-.342 0-.621.09-.837.27-.216.174-.324.42-.324.738 0 .228.063.414.189.558.132.144.291.255.477.333.192.072.459.156.801.252a7.01 7.01 0 0 1 .999.342c.252.108.468.279.648.513.18.228.27.54.27.936a1.65 1.65 0 0 1-.243.864c-.162.27-.402.489-.72.657s-.693.252-1.125.252zm5.282 0c-.414 0-.786-.072-1.116-.216-.324-.15-.579-.354-.765-.612a1.59 1.59 0 0 1-.288-.909h.873c.03.294.15.543.36.747.216.198.528.297.936.297.39 0 .696-.096.918-.288.228-.198.342-.45.342-.756 0-.24-.066-.435-.198-.585s-.297-.264-.495-.342-.465-.162-.801-.252c-.414-.108-.747-.216-.999-.324a1.66 1.66 0 0 1-.639-.504c-.174-.234-.261-.546-.261-.936 0-.342.087-.645.261-.909s.417-.468.729-.612c.318-.144.681-.216 1.089-.216.588 0 1.068.147 1.44.441.378.294.591.684.639 1.17h-.9c-.03-.24-.156-.45-.378-.63-.222-.186-.516-.279-.882-.279-.342 0-.621.09-.837.27-.216.174-.324.42-.324.738 0 .228.063.414.189.558.132.144.291.255.477.333.192.072.459.156.801.252a7.01 7.01 0 0 1 .999.342c.252.108.468.279.648.513.18.228.27.54.27.936a1.65 1.65 0 0 1-.243.864c-.162.27-.402.489-.72.657s-.693.252-1.125.252z"/></g><circle cx="510.5" cy="36" r="3.5" class="C"/><path d="M490.682 25.063c-.414 0-.786-.072-1.116-.216-.324-.15-.579-.354-.765-.612a1.59 1.59 0 0 1-.288-.909h.873c.03.294.15.543.36.747.216.198.528.297.936.297.39 0 .696-.096.918-.288.228-.198.342-.45.342-.756 0-.24-.066-.435-.198-.585s-.297-.264-.495-.342-.465-.162-.801-.252c-.414-.108-.747-.216-.999-.324a1.66 1.66 0 0 1-.639-.504c-.174-.234-.261-.546-.261-.936 0-.342.087-.645.261-.909s.417-.468.729-.612c.318-.144.681-.216 1.089-.216.588 0 1.068.147 1.44.441.378.294.591.684.639 1.17h-.9c-.03-.24-.156-.45-.378-.63-.222-.186-.516-.279-.882-.279-.342 0-.621.09-.837.27-.216.174-.324.42-.324.738 0 .228.063.414.189.558.132.144.291.255.477.333.192.072.459.156.801.252a7.01 7.01 0 0 1 .999.342c.252.108.468.279.648.513.18.228.27.54.27.936a1.65 1.65 0 0 1-.243.864c-.162.27-.402.489-.72.657s-.693.252-1.125.252zm8.324 1.125l-1.251-1.251a3.52 3.52 0 0 1-.936.126c-.582 0-1.113-.135-1.593-.405-.48-.276-.861-.657-1.143-1.143-.276-.492-.414-1.044-.414-1.656s.138-1.161.414-1.647c.282-.492.663-.873 1.143-1.143.48-.276 1.011-.414 1.593-.414.588 0 1.122.138 1.602.414a2.94 2.94 0 0 1 1.134 1.134c.276.486.414 1.038.414 1.656 0 .6-.132 1.14-.396 1.62s-.627.858-1.089 1.134l1.584 1.575h-1.062zm-4.5-4.329c0 .498.099.936.297 1.314.204.378.48.669.828.873.354.204.75.306 1.188.306s.831-.102 1.179-.306c.354-.204.63-.495.828-.873.204-.378.306-.816.306-1.314 0-.504-.102-.942-.306-1.314-.198-.378-.471-.669-.819-.873s-.744-.306-1.188-.306-.84.102-1.188.306-.624.495-.828.873c-.198.372-.297.81-.297 1.314zm7.381 2.475h2.196V25h-3.015v-6.273h.819v5.607zm6.284-5.607V25h-.819v-6.273h.819zm3.799 1.251c.6 0 1.086.183 1.458.549.372.36.558.882.558 1.566V25h-.81v-2.79c0-.492-.123-.867-.369-1.125-.246-.264-.582-.396-1.008-.396-.432 0-.777.135-1.035.405-.252.27-.378.663-.378 1.179V25h-.819v-4.932h.819v.702c.162-.252.381-.447.657-.585a2.08 2.08 0 0 1 .927-.207zm3.795-.711a.54.54 0 0 1-.396-.162c-.102-.108-.153-.24-.153-.396s.051-.288.153-.396a.54.54 0 0 1 .396-.162.51.51 0 0 1 .387.162.54.54 0 0 1 .162.396.54.54 0 0 1-.162.396.51.51 0 0 1-.387.162zm.405 6.804c0 .438-.111.759-.333.963s-.546.306-.972.306h-.477v-.693h.342c.228 0 .387-.045.477-.135.096-.09.144-.243.144-.459v-5.985h.819v6.003zm5.886-3.726a4.82 4.82 0 0 1-.027.495h-3.942c.03.486.195.867.495 1.143.306.27.675.405 1.107.405.354 0 .648-.081.882-.243.24-.168.408-.39.504-.666h.882a2.14 2.14 0 0 1-.792 1.161c-.396.294-.888.441-1.476.441-.468 0-.888-.105-1.26-.315-.366-.21-.654-.507-.864-.891-.21-.39-.315-.84-.315-1.35s.102-.957.306-1.341.489-.678.855-.882c.372-.21.798-.315 1.278-.315.468 0 .882.102 1.242.306a2.08 2.08 0 0 1 .828.846c.198.354.297.756.297 1.206zm-.846-.171c0-.312-.069-.579-.207-.801-.138-.228-.327-.399-.567-.513a1.69 1.69 0 0 0-.783-.18c-.414 0-.768.132-1.062.396-.288.264-.453.63-.495 1.098h3.114zm1.621.351c0-.51.102-.954.306-1.332.204-.384.486-.681.846-.891.366-.21.783-.315 1.251-.315.606 0 1.104.147 1.494.441.396.294.657.702.783 1.224h-.882a1.26 1.26 0 0 0-.495-.711c-.24-.174-.54-.261-.9-.261-.468 0-.846.162-1.134.486-.288.318-.432.771-.432 1.359 0 .594.144 1.053.432 1.377s.666.486 1.134.486c.36 0 .66-.084.9-.252s.405-.408.495-.72h.882a2.19 2.19 0 0 1-.792 1.215c-.396.3-.891.45-1.485.45-.468 0-.885-.105-1.251-.315-.36-.21-.642-.507-.846-.891s-.306-.834-.306-1.35zm6.772-1.782v2.907c0 .24.051.411.153.513.102.096.279.144.531.144h.603V25h-.738c-.456 0-.798-.105-1.026-.315s-.342-.555-.342-1.035v-2.907h-.639v-.675h.639v-1.242h.819v1.242h1.287v.675h-1.287zm2.702-1.476a.54.54 0 0 1-.558-.558.54.54 0 0 1 .558-.558.5.5 0 0 1 .378.162.54.54 0 0 1 .162.396.54.54 0 0 1-.162.396.5.5 0 0 1-.378.162zm.396.801V25h-.819v-4.932h.819zm3.547 5.013a2.55 2.55 0 0 1-1.26-.315 2.29 2.29 0 0 1-.882-.891c-.21-.39-.315-.84-.315-1.35 0-.504.108-.948.324-1.332.222-.39.522-.687.9-.891.378-.21.801-.315 1.269-.315s.891.105 1.269.315a2.21 2.21 0 0 1 .891.882c.222.384.333.831.333 1.341s-.114.96-.342 1.35c-.222.384-.525.681-.909.891a2.62 2.62 0 0 1-1.278.315zm0-.72a1.73 1.73 0 0 0 .828-.207c.258-.138.465-.345.621-.621.162-.276.243-.612.243-1.008s-.078-.732-.234-1.008-.36-.48-.612-.612c-.252-.138-.525-.207-.819-.207-.3 0-.576.069-.828.207-.246.132-.444.336-.594.612s-.225.612-.225 1.008c0 .402.072.741.216 1.017.15.276.348.483.594.621.246.132.516.198.81.198zm6.009-4.383c.6 0 1.086.183 1.458.549.372.36.558.882.558 1.566V25h-.81v-2.79c0-.492-.123-.867-.369-1.125-.246-.264-.582-.396-1.008-.396-.432 0-.777.135-1.035.405-.252.27-.378.663-.378 1.179V25h-.819v-4.932h.819v.702c.162-.252.381-.447.657-.585a2.08 2.08 0 0 1 .927-.207z" class="B"/><g class="C"><circle cx="550.5" cy="22" r="3.5"/><circle cx="559.5" cy="22" r="3.5"/><circle cx="568.5" cy="22" r="3.5"/><circle cx="577.5" cy="22" r="3.5"/></g><path d="M531.646 301.727c.684 0 1.275.129 1.773.387.504.252.888.615 1.152 1.089.27.474.405 1.032.405 1.674s-.135 1.2-.405 1.674c-.264.468-.648.828-1.152 1.08-.498.246-1.089.369-1.773.369h-1.953v-6.273h1.953zm0 5.598c.81 0 1.428-.213 1.854-.639.426-.432.639-1.035.639-1.809 0-.78-.216-1.389-.648-1.827-.426-.438-1.041-.657-1.845-.657h-1.134v4.932h1.134zm8.91-1.98a4.82 4.82 0 0 1-.027.495h-3.942c.03.486.195.867.495 1.143.306.27.675.405 1.107.405.354 0 .648-.081.882-.243.24-.168.408-.39.504-.666h.882a2.14 2.14 0 0 1-.792 1.161c-.396.294-.888.441-1.476.441-.468 0-.888-.105-1.26-.315-.366-.21-.654-.507-.864-.891-.21-.39-.315-.84-.315-1.35s.102-.957.306-1.341.489-.678.855-.882c.372-.21.798-.315 1.278-.315.468 0 .882.102 1.242.306a2.08 2.08 0 0 1 .828.846c.198.354.297.756.297 1.206zm-.846-.171c0-.312-.069-.579-.207-.801-.138-.228-.327-.399-.567-.513a1.69 1.69 0 0 0-.783-.18c-.414 0-.768.132-1.062.396-.288.264-.453.63-.495 1.098h3.114zm2.746-1.188c.168-.294.414-.534.738-.72s.693-.279 1.107-.279a2.3 2.3 0 0 1 1.197.315c.354.21.633.507.837.891.204.378.306.819.306 1.323 0 .498-.102.942-.306 1.332a2.25 2.25 0 0 1-.846.909c-.354.216-.75.324-1.188.324-.426 0-.801-.093-1.125-.279-.318-.186-.558-.423-.72-.711V308h-.819v-6.66h.819v2.646zm3.348 1.53c0-.372-.075-.696-.225-.972a1.55 1.55 0 0 0-.612-.63c-.252-.144-.531-.216-.837-.216-.3 0-.579.075-.837.225-.252.144-.456.357-.612.639-.15.276-.225.597-.225.963 0 .372.075.699.225.981.156.276.36.489.612.639a1.69 1.69 0 0 0 .837.216c.306 0 .585-.072.837-.216a1.61 1.61 0 0 0 .612-.639c.15-.282.225-.612.225-.99zm2.338-3.249a.54.54 0 0 1-.558-.558.54.54 0 0 1 .558-.558.5.5 0 0 1 .378.162.54.54 0 0 1 .162.396.54.54 0 0 1-.162.396.5.5 0 0 1-.378.162zm.396.801V308h-.819v-4.932h.819zm1.09 2.448c0-.504.102-.945.306-1.323.204-.384.483-.681.837-.891.36-.21.759-.315 1.197-.315.432 0 .807.093 1.125.279s.555.42.711.702v-.9h.828V308h-.828v-.918c-.162.288-.405.528-.729.72a2.17 2.17 0 0 1-1.116.279c-.438 0-.834-.108-1.188-.324s-.633-.519-.837-.909-.306-.834-.306-1.332zm4.176.009c0-.372-.075-.696-.225-.972a1.55 1.55 0 0 0-.612-.63c-.252-.15-.531-.225-.837-.225s-.585.072-.837.216-.453.354-.603.63-.225.6-.225.972c0 .378.075.708.225.99a1.63 1.63 0 0 0 .603.639c.252.144.531.216.837.216s.585-.072.837-.216a1.61 1.61 0 0 0 .612-.639c.15-.282.225-.609.225-.981zm4.615-2.547c.6 0 1.086.183 1.458.549.372.36.558.882.558 1.566V308h-.81v-2.79c0-.492-.123-.867-.369-1.125-.246-.264-.582-.396-1.008-.396-.432 0-.777.135-1.035.405-.252.27-.378.663-.378 1.179V308h-.819v-4.932h.819v.702c.162-.252.381-.447.657-.585a2.08 2.08 0 0 1 .927-.207z" class="B"/><g class="C"><circle cx="567.5" cy="305" r="3.5"/><circle cx="576.5" cy="305" r="3.5"/><circle cx="585.5" cy="305" r="3.5"/><circle cx="594.5" cy="305" r="3.5"/></g><path d="M533.239 316.727v.666h-2.727v2.115h2.214v.666h-2.214V323h-.819v-6.273h3.546zm5.489 3.618a4.82 4.82 0 0 1-.027.495h-3.942c.03.486.195.867.495 1.143.306.27.675.405 1.107.405.354 0 .648-.081.882-.243.24-.168.408-.39.504-.666h.882a2.14 2.14 0 0 1-.792 1.161c-.396.294-.888.441-1.476.441-.468 0-.888-.105-1.26-.315-.366-.21-.654-.507-.864-.891-.21-.39-.315-.84-.315-1.35s.102-.957.306-1.341.489-.678.855-.882c.372-.21.798-.315 1.278-.315.468 0 .882.102 1.242.306a2.08 2.08 0 0 1 .828.846c.198.354.297.756.297 1.206zm-.846-.171c0-.312-.069-.579-.207-.801-.138-.228-.327-.399-.567-.513a1.69 1.69 0 0 0-.783-.18c-.414 0-.768.132-1.062.396-.288.264-.453.63-.495 1.098h3.114zm1.621.342c0-.504.102-.945.306-1.323.204-.384.483-.681.837-.891a2.35 2.35 0 0 1 1.206-.315 2.2 2.2 0 0 1 1.071.27c.33.174.582.405.756.693v-2.61h.828V323h-.828v-.927c-.162.294-.402.537-.72.729a2.17 2.17 0 0 1-1.116.279c-.438 0-.837-.108-1.197-.324-.354-.216-.633-.519-.837-.909s-.306-.834-.306-1.332zm4.176.009c0-.372-.075-.696-.225-.972a1.55 1.55 0 0 0-.612-.63c-.252-.15-.531-.225-.837-.225s-.585.072-.837.216-.453.354-.603.63-.225.6-.225.972c0 .378.075.708.225.99a1.63 1.63 0 0 0 .603.639c.252.144.531.216.837.216s.585-.072.837-.216a1.61 1.61 0 0 0 .612-.639c.15-.282.225-.609.225-.981zm4.363 2.556a2.55 2.55 0 0 1-1.26-.315 2.29 2.29 0 0 1-.882-.891c-.21-.39-.315-.84-.315-1.35 0-.504.108-.948.324-1.332.222-.39.522-.687.9-.891.378-.21.801-.315 1.269-.315s.891.105 1.269.315a2.21 2.21 0 0 1 .891.882c.222.384.333.831.333 1.341s-.114.96-.342 1.35c-.222.384-.525.681-.909.891a2.62 2.62 0 0 1-1.278.315zm0-.72a1.73 1.73 0 0 0 .828-.207c.258-.138.465-.345.621-.621.162-.276.243-.612.243-1.008s-.078-.732-.234-1.008-.36-.48-.612-.612c-.252-.138-.525-.207-.819-.207-.3 0-.576.069-.828.207-.246.132-.444.336-.594.612s-.225.612-.225 1.008c0 .402.072.741.216 1.017.15.276.348.483.594.621.246.132.516.198.81.198zm4.425-3.492a1.58 1.58 0 0 1 .612-.657c.27-.156.597-.234.981-.234v.846h-.216c-.918 0-1.377.498-1.377 1.494V323h-.819v-4.932h.819v.801zm2.233 1.647c0-.504.102-.945.306-1.323.204-.384.483-.681.837-.891.36-.21.759-.315 1.197-.315.432 0 .807.093 1.125.279s.555.42.711.702v-.9h.828V323h-.828v-.918c-.162.288-.405.528-.729.72a2.17 2.17 0 0 1-1.116.279c-.438 0-.834-.108-1.188-.324s-.633-.519-.837-.909-.306-.834-.306-1.332zm4.176.009c0-.372-.075-.696-.225-.972a1.55 1.55 0 0 0-.612-.63c-.252-.15-.531-.225-.837-.225s-.585.072-.837.216-.453.354-.603.63-.225.6-.225.972c0 .378.075.708.225.99a1.63 1.63 0 0 0 .603.639c.252.144.531.216.837.216s.585-.072.837-.216a1.61 1.61 0 0 0 .612-.639c.15-.282.225-.609.225-.981z" class="B"/><circle cx="566.5" cy="320" r="3.5" class="C"/><g stroke-width="5" class="D E"><path d="M224 36c-91.823 0-73.76 176-142 176" stroke="#b60078"/><path d="M223 401c-91.177 0-73.24-189-141-189" stroke="#6700e8"/><path d="M223 304c-91.177 0-73.24-92-141-92" stroke="#0088c2"/><path d="M223 168c-91.177 0-73.24 45-141 45" class="G"/></g><g stroke="#6700e8" class="F D E"><path d="M391 362c-38.799 0-31.166 39.092-60 39.092M391 439c-38.799 0-31.166-37.908-60-37.908"/><path d="M391 424.785c-38.799 0-31.166-23.693-60-23.693"/><path d="M391 408.2c-38.799 0-31.166-7.108-60-7.108m60-7.107c-38.799 0-31.166 7.107-60 7.107m60-22.507c-38.799 0-31.166 22.507-60 22.507"/></g><g class="G D E F"><path d="M476 82c-38.799 0-31.166 38.077-60 38.077M476 157c-38.799 0-31.166-36.923-60-36.923"/><path d="M476 143.154c-38.799 0-31.166-23.077-60-23.077"/><path d="M476 127c-38.799 0-31.166-6.923-60-6.923m60-6.923c-38.799 0-31.166 6.923-60 6.923"/><path d="M476 98.154c-38.799 0-31.166 21.923-60 21.923M482 180c-38.799 0-31.166 38.585-60 38.585M482 256c-38.799 0-31.166-37.415-60-37.415"/><path d="M482 241.969c-38.799 0-31.166-23.384-60-23.384"/><path d="M482 225.6c-38.799 0-31.166-7.015-60-7.015m60-7.016c-38.799 0-31.166 7.016-60 7.016m60-22.216c-38.799 0-31.166 22.216-60 22.216M599 105c-38.799 0-31.166-23.59-60-23.59"/><path d="M599 88.487c-38.799 0-31.166-7.077-60-7.077m60-7.077c-38.799 0-31.166 7.077-60 7.077M599 59c-38.799 0-31.166 22.41-60 22.41"/></g><g stroke="#b60078" class="D E F"><path d="M483 36c-38.799 0-31.166-7-60-7m60-7c-38.799 0-31.166 7-60 7m-30 13c-38.799 0-31.166-6-60-6m60-6c-38.799 0-31.166 6-60 6"/></g><g class="G D E F"><path d="M375 218c-38.799 0-31.166-49-60-49m60-49c-38.799 0-31.166 49-60 49"/></g><g stroke="#0088c2" class="D E F"><path d="M366 313c-38.799 0-31.166-8-60-8m60-8c-38.799 0-31.166 8-60 8m218 15c-38.799 0-31.166-7.5-60-7.5m60-7.5c-38.799 0-31.166 7.5-60 7.5"/></g><g clip-path="url(#C)"><g filter="url(#A)"><path d="M25.791 246.42c4.165 2.233 8.889 3.52 13.879 3.52s9.713-1.287 13.879-3.52v-4.442H25.791v4.442z" fill="#d29b6e"/><path d="M66.436 212.117h-.991V190.22h-51.55v21.897h-.991c-2.738 0-4.957 2.228-4.957 4.977s2.219 4.977 4.957 4.977h1.092c1.015 13.358 12.109 23.887 25.675 23.887s24.659-10.529 25.674-23.887h1.091c2.738 0 4.957-2.228 4.957-4.977s-2.219-4.977-4.957-4.977z" fill="#f5b97d"/><path d="M57.514 194.202v-3.982H13.895v21.897h-.708c-2.593 0-4.956 1.873-5.214 4.463-.297 2.979 2.025 5.49 4.931 5.49h1.092c1.015 13.359 12.109 23.888 25.675 23.888 1.356 0 2.679-.133 3.978-.336-12.353-1.914-21.822-12.604-21.822-25.542v-13.935c0-4.398 3.551-7.963 7.931-7.963h23.792c2.19.001 3.965-1.781 3.965-3.98z" fill="#e3aa75"/><use xlink:href="#D" class="H"/><path d="M51.566 218.262c-1.096 0-1.983-.891-1.983-1.991v-1.99c0-1.099.887-1.991 1.983-1.991s1.983.892 1.983 1.991v1.99c0 1.1-.887 1.991-1.983 1.991z" class="H"/><use xlink:href="#E" class="I"/><path d="M53.549 210.127h-3.965c-1.096 0-1.983-.891-1.983-1.991s.887-1.99 1.983-1.99h3.965c1.096 0 1.983.891 1.983 1.99s-.887 1.991-1.983 1.991z" class="I"/><path d="M31.614 225.246c-.624 0-.871.549-.767 1.167.644 3.833 4.349 6.772 8.823 6.772s8.179-2.939 8.823-6.772c.104-.618-.577-1.167-1.201-1.167H31.614z" class="B"/><path d="M61.884 186.239H17.455c-6.054 0-10.694 5.4-9.806 11.413l2.281 15.449 4.452-.552c1.987-.246 3.479-1.941 3.479-3.951v-10.415c0-2.199 1.775-3.981 3.965-3.981h35.688c2.19 0 3.965 1.782 3.965 3.981v10.415c0 2.01 1.493 3.705 3.479 3.951l4.451.552 2.281-15.45c.887-6.012-3.753-11.412-9.807-11.412z" class="H"/><path d="M66.376 172.799c-.381-1.185-1.753-1.761-2.836-1.154-2.065 1.157-5.905 2.649-11.974 2.649H31.739c-7.665 0-13.879 6.239-13.879 13.935 0 3.298 2.663 5.972 5.948 5.972h31.723c7.451 0 14.901-8.785 10.845-21.402z" fill="#64505a"/><path d="M29.663 181.235c.03 2.822 2.52 5.004 5.331 5.004h26.89c1.427 0 2.77.309 3.986.847 1.806-3.681 2.339-8.588.502-14.293-.379-1.18-1.75-1.754-2.828-1.15-2.064 1.158-5.905 2.653-11.979 2.653H31.739l-.388.228a13.9 13.9 0 0 0-1.689 6.647l.001.064z" class="I"/></g></g></g><defs><filter id="A" x="-.46" y="165.4" width="84.26" height="98.54" filterUnits="userSpaceOnUse" color-interpolation-filters="sRGB"><feFlood flood-opacity="0" result="A"/><feColorMatrix in="SourceAlpha" values="0 0 0 0 0 0 0 0 0 0 0 0 0 0 0 0 0 0 127 0"/><feOffset dx="2" dy="4"/><feGaussianBlur stdDeviation="5"/><feColorMatrix values="0 0 0 0 0 0 0 0 0 0 0 0 0 0 0 0 0 0 0.4 0"/><feBlend in2="A"/><feBlend in="SourceGraphic"/></filter><clipPath id="B"><rect width="688" height="460" rx="23" class="B"/></clipPath><clipPath id="C"><path transform="translate(-3 168)" d="M0 0h85v85H0z" class="B"/></clipPath><path id="D" d="M27.774 218.262c-1.096 0-1.983-.891-1.983-1.991v-1.99c0-1.099.887-1.991 1.983-1.991s1.983.892 1.983 1.991v1.99c0 1.1-.887 1.991-1.983 1.991z"/><path id="E" d="M29.756 210.127h-3.965c-1.096 0-1.983-.891-1.983-1.991s.887-1.99 1.983-1.99h3.965c1.096 0 1.983.891 1.983 1.99s-.887 1.991-1.983 1.991z"/></defs></svg>